<svg width="83" height="84" viewBox="0 0 83 84" fill="none" xmlns="http://www.w3.org/2000/svg">
<g clip-path="url(#clip0_87_267)">
<path d="M36.6252 -0.0692573C36.9725 -0.0711879 37.3194 -0.0791844 37.6666 -0.0874069C37.889 -0.0889472 38.1115 -0.0901238 38.3339 -0.0909018C38.5352 -0.0930905 38.7364 -0.0952792 38.9438 -0.0975342C39.6875 0.0317063 39.9421 0.279811 40.4723 0.813321C40.767 1.36746 40.7948 1.63394 40.7948 2.27736C41.0043 2.30756 41.2138 2.33775 41.4297 2.36887C45.4981 3.19675 49.0888 6.05868 51.3745 9.47366C52.7645 11.6368 54.0658 14.4221 54.0269 17.0499C54.0254 17.1785 54.024 17.307 54.0225 17.4395C54.0197 17.5838 54.0197 17.5838 54.0168 17.7311C54.2647 17.7226 54.2647 17.7226 54.5175 17.714C54.7369 17.7094 54.9563 17.705 55.1757 17.7006C55.2844 17.6965 55.393 17.6925 55.5048 17.6882C56.2254 17.6776 56.6703 17.7708 57.2417 18.2191C57.491 18.7221 57.4503 19.1292 57.4029 19.6832C57.1604 20.0428 57.1604 20.0428 56.758 20.3339C56.2912 20.3811 55.8905 20.396 55.4277 20.3745C55.3076 20.3716 55.1874 20.3687 55.0636 20.3656C54.7683 20.358 54.4732 20.3463 54.178 20.3339C54.1723 21.0085 54.1791 21.6825 54.1881 22.3571C54.1864 22.5466 54.1846 22.736 54.1828 22.9312C54.2064 24.1379 54.376 24.8302 55.1969 25.7251C56.1829 26.8244 56.185 28.3888 56.1577 29.791C56.0347 31.5193 55.2148 32.8507 53.9966 34.0288C52.8205 34.9869 51.4803 35.4253 49.9857 35.2996C49.9648 35.477 49.9648 35.477 49.9435 35.658C49.7141 37.3144 49.2138 38.8322 48.212 40.1798C48.3151 40.3073 48.4182 40.4347 48.5244 40.5661C49.0534 41.2454 49.0361 41.6159 49.0283 42.4775C49.0269 42.6859 49.0254 42.8944 49.0239 43.1091C49.0211 43.3501 49.0211 43.3501 49.0182 43.5959C49.1397 43.5951 49.2612 43.5944 49.3864 43.5936C52.3473 43.5756 55.3082 43.5621 58.2692 43.5537C59.7011 43.5495 61.133 43.5438 62.5649 43.5345C63.8134 43.5264 65.0619 43.5211 66.3104 43.5193C66.9711 43.5183 67.6317 43.5158 68.2924 43.5099C68.9152 43.5043 69.538 43.5026 70.1608 43.5039C70.3885 43.5036 70.6161 43.502 70.8437 43.4989C72.2241 43.4808 73.3491 43.5748 74.4948 44.4092C75.5222 45.4753 75.8247 46.5783 75.8265 48.0618C75.8274 48.2351 75.8274 48.2351 75.8282 48.4119C75.8296 48.7914 75.8287 49.171 75.8276 49.5505C75.8278 49.8183 75.8281 50.086 75.8285 50.3538C75.829 50.9154 75.8283 51.4769 75.8268 52.0385C75.825 52.7486 75.8261 53.4586 75.8279 54.1686C75.8539 65.7633 75.8539 65.7633 72.4963 69.9003C72.1148 70.2112 71.7354 70.1884 71.2605 70.1672C70.9475 70.1113 70.9475 70.1113 70.5443 69.8571C70.2094 69.308 70.2482 68.9615 70.3025 68.3219C70.4864 67.9166 70.6706 67.5613 70.8971 67.1832C72.7661 63.8506 73.069 60.1818 73.0707 56.4272C73.0712 56.1614 73.0718 55.8956 73.0723 55.6299C73.0733 55.0766 73.0736 54.5233 73.0735 53.97C73.0735 53.2613 73.0757 52.5526 73.0785 51.8439C73.0803 51.2967 73.0806 50.7495 73.0805 50.2024C73.0807 49.9409 73.0814 49.6795 73.0827 49.4181C73.0842 49.0537 73.0838 48.6894 73.0828 48.3251C73.0831 48.0146 73.0831 48.0146 73.0835 47.6978C73.0459 47.204 72.9958 46.9286 72.7211 46.5239C72.2896 46.3063 71.9589 46.3398 71.4755 46.3384C71.279 46.3375 71.0826 46.3366 70.8801 46.3356C70.6613 46.3354 70.4424 46.3352 70.2235 46.3351C69.9939 46.3343 69.7643 46.3335 69.5346 46.3326C68.91 46.3305 68.2854 46.3294 67.6607 46.3287C67.2707 46.3282 66.8807 46.3276 66.4908 46.3268C65.2714 46.3246 64.0521 46.323 62.8327 46.3224C61.4236 46.3217 60.0146 46.3188 58.6055 46.3141C57.5172 46.3106 56.429 46.309 55.3407 46.3087C54.6903 46.3086 54.0399 46.3076 53.3895 46.3047C52.7779 46.302 52.1663 46.3017 51.5548 46.3031C51.33 46.3032 51.1053 46.3025 50.8806 46.3009C50.5744 46.2989 50.2681 46.3001 49.9618 46.3015C49.7903 46.3013 49.6187 46.301 49.442 46.3008C49.0163 46.3282 49.0163 46.3282 48.7212 46.5741C48.4049 47.0403 48.4675 47.5698 48.4719 48.1151C48.4711 48.2441 48.4702 48.373 48.4693 48.5058C48.4672 48.9335 48.4686 49.3611 48.4703 49.7888C48.4699 50.0878 48.4695 50.3869 48.4688 50.6859C48.4681 51.3147 48.4692 51.9435 48.4714 52.5722C48.4742 53.3705 48.4726 54.1687 48.4697 54.967C48.4679 55.5861 48.4685 56.2052 48.4698 56.8244C48.4701 57.1181 48.4697 57.4119 48.4686 57.7056C48.452 63.1702 50.1322 67.8157 53.9563 71.7481C55.4948 73.2889 57.1852 74.5165 59.0255 75.6624C59.1723 75.7549 59.1723 75.7549 59.3222 75.8492C59.9206 76.2089 60.4099 76.4653 61.1116 76.4554C61.6076 76.249 62.0437 75.9678 62.4922 75.6726C62.6198 75.5912 62.7474 75.5098 62.8789 75.4259C64.1588 74.597 65.3725 73.6855 66.5214 72.6791C67.4253 71.9051 67.4253 71.9051 68.1861 71.8803C68.9148 72.145 68.9148 72.145 69.1738 72.5513C69.3662 73.0643 69.3532 73.3084 69.1838 73.8324C68.7456 74.5022 68.2074 75.0117 67.5613 75.4794C67.4549 75.4794 67.3485 75.4794 67.2388 75.4794C67.2422 75.6451 67.2456 75.8107 67.2491 75.9814C67.2608 76.6011 67.2682 77.2207 67.2743 77.8405C67.2775 78.1077 67.2819 78.375 67.2875 78.6422C67.2954 79.0283 67.299 79.4142 67.3018 79.8004C67.3051 79.9182 67.3085 80.036 67.3119 80.1574C67.3123 81.0503 67.0808 81.7267 66.5939 82.4743C65.8732 83.1659 65.339 83.3078 64.3632 83.3095C64.1657 83.3102 63.9682 83.3109 63.7647 83.3117C63.5443 83.3117 63.324 83.3116 63.1036 83.3116C62.8704 83.3121 62.6373 83.3127 62.4041 83.3134C61.7617 83.315 61.1194 83.3156 60.4771 83.3161C59.7849 83.3167 59.0928 83.3182 58.4006 83.3197C56.7285 83.3229 55.0563 83.3245 53.3841 83.326C52.5971 83.3267 51.8101 83.3276 51.023 83.3284C48.4075 83.3312 45.7919 83.3335 43.1764 83.3347C42.4975 83.335 41.8187 83.3353 41.1398 83.3357C40.9711 83.3357 40.8024 83.3358 40.6285 83.3359C37.8937 83.3372 35.1589 83.3414 32.4241 83.3466C29.6177 83.352 26.8113 83.355 24.0049 83.3555C22.4286 83.3558 20.8524 83.3573 19.2762 83.3614C17.9341 83.3649 16.592 83.3662 15.25 83.3647C14.565 83.3639 13.8801 83.3643 13.1952 83.3674C12.5682 83.3703 11.9414 83.3701 11.3145 83.3676C11.0876 83.3672 10.8607 83.3679 10.6338 83.3698C8.53391 83.3865 8.53391 83.3865 7.7397 82.637C6.69358 81.5229 6.72423 80.3511 6.72538 78.8965C6.7243 78.7007 6.72322 78.5048 6.7221 78.303C6.71957 77.7671 6.7185 77.2313 6.71829 76.6955C6.71806 76.3595 6.71737 76.0235 6.71652 75.6874C6.71354 74.5116 6.71222 73.3357 6.71247 72.1598C6.71266 71.07 6.70928 69.9803 6.70417 68.8905C6.69992 67.9505 6.69823 67.0105 6.69843 66.0704C6.69851 65.511 6.69763 64.9516 6.69418 64.3922C6.67503 60.6364 6.85751 57.3778 9.51338 54.4948C11.527 52.5101 14.4078 51.7053 17.0012 50.7737C17.6308 50.5458 18.2601 50.3172 18.8895 50.0887C19.1182 50.0059 19.1182 50.0059 19.3515 49.9214C20.7245 49.4234 22.0902 48.9077 23.4509 48.3763C23.6558 48.2973 23.6558 48.2973 23.8648 48.2167C23.9792 48.172 24.0936 48.1272 24.2115 48.0811C24.5091 47.988 24.5091 47.988 24.9928 47.988C24.9903 47.7951 24.9878 47.6023 24.9852 47.4036C24.9764 46.6866 24.9708 45.9696 24.9663 45.2526C24.9638 44.9426 24.9605 44.6325 24.9563 44.3225C24.9505 43.8763 24.9477 43.4302 24.9456 42.9839C24.9431 42.8458 24.9406 42.7077 24.938 42.5654C24.9378 41.7897 24.9929 41.3063 25.4766 40.6678C25.7048 40.3534 25.7048 40.3534 25.7991 40.0171C25.6464 39.6481 25.6464 39.6481 25.3758 39.2851C24.6052 38.0779 24.0555 36.7546 24.1866 35.2996C23.9837 35.313 23.7809 35.3265 23.5719 35.3403C21.9918 35.3328 20.6195 34.6181 19.5105 33.5102C18.3212 32.0505 17.7458 30.3534 17.8981 28.4674C18.1059 27.1328 18.5066 25.727 19.6011 24.8494C19.9352 24.4373 19.9028 24.1176 19.9155 23.5905C19.9241 23.3066 19.9241 23.3066 19.9328 23.017C19.9365 22.8194 19.9401 22.6217 19.9439 22.4181C19.9494 22.2186 19.9549 22.019 19.9606 21.8135C19.9739 21.3203 19.985 20.8272 19.9943 20.3339C19.8174 20.3433 19.6405 20.3527 19.4583 20.3625C19.2237 20.3701 18.9892 20.3775 18.7547 20.3847C18.6384 20.3915 18.5221 20.3983 18.4023 20.4054C17.7295 20.4209 17.4843 20.3876 16.9287 19.9602C16.6081 19.5205 16.6081 19.5205 16.588 18.941C16.8069 18.2662 16.9817 18.1009 17.5756 17.7311C18.0208 17.6846 18.395 17.6684 18.8353 17.6905C18.947 17.6934 19.0588 17.6963 19.1739 17.6994C19.4474 17.707 19.7209 17.7186 19.9943 17.7311C19.9984 17.6185 20.0026 17.5059 20.0069 17.3899C20.2613 12.9612 22.5087 8.9118 25.7334 5.95923C27.8158 4.13651 30.6092 2.54685 33.3775 2.27736C33.3642 2.13645 33.3509 1.99553 33.3372 1.85035C33.3873 1.16778 33.6043 0.855732 34.0225 0.325308C34.8034 -0.199877 35.7113 -0.0668506 36.6252 -0.0692573ZM35.9574 2.44003C35.9574 5.23147 35.9574 8.02291 35.9574 10.8989C36.7024 10.8989 37.4473 10.8989 38.2149 10.8989C38.2149 8.1075 38.2149 5.31606 38.2149 2.44003C37.4699 2.44003 36.725 2.44003 35.9574 2.44003ZM26.444 8.94688C26.0824 9.36806 25.7815 9.78242 25.4766 10.2483C25.5607 10.304 25.6449 10.3598 25.7317 10.4173C28.246 12.2209 29.4239 14.9029 30.4751 17.7311C34.8384 17.7311 39.2017 17.7311 43.6972 17.7311C44.0164 16.8185 44.3357 15.906 44.6646 14.9657C45.7064 13.1532 46.8793 11.5328 48.5345 10.2483C46.9147 7.47731 43.7889 5.71967 40.7948 4.8801C40.7924 5.08689 40.7901 5.29367 40.7877 5.50672C40.7783 6.2762 40.7658 7.0456 40.7525 7.81502C40.7471 8.1476 40.7426 8.4802 40.7389 8.81281C40.7335 9.29178 40.7251 9.77061 40.716 10.2495C40.715 10.3975 40.714 10.5455 40.7129 10.6979C40.6904 11.6851 40.5678 12.4086 39.8654 13.152C39.3672 13.4104 38.9708 13.4022 38.412 13.4038C38.1995 13.4045 37.987 13.4051 37.768 13.4057C37.6577 13.4047 37.5474 13.4037 37.4337 13.4026C37.0978 13.4 36.7623 13.4026 36.4264 13.4057C36.1073 13.4048 36.1073 13.4048 35.7817 13.4038C35.5874 13.4033 35.3931 13.4027 35.1928 13.4022C34.6148 13.3327 34.3168 13.2125 33.8613 12.851C33.5717 12.3748 33.4966 12.0092 33.4874 11.4545C33.4842 11.308 33.481 11.1615 33.4777 11.0105C33.4758 10.8537 33.4739 10.697 33.472 10.5355C33.4689 10.3739 33.4658 10.2124 33.4626 10.0459C33.4529 9.53046 33.4454 9.01501 33.438 8.49954C33.4318 8.14983 33.4256 7.80013 33.4191 7.45044C33.4036 6.59368 33.3899 5.73691 33.3775 4.8801C30.8997 4.8801 28.1284 7.32957 26.444 8.94688ZM24.0254 12.5257C23.25 14.1913 22.5742 15.858 22.5742 17.7311C24.2769 17.7311 25.9797 17.7311 27.734 17.7311C26.9569 15.5753 26.0983 14.0139 24.3479 12.5257C24.2414 12.5257 24.135 12.5257 24.0254 12.5257ZM49.0888 13.034C48.5077 13.6341 48.0457 14.2736 47.5973 14.9759C47.5372 15.0697 47.4771 15.1636 47.4152 15.2603C46.6917 16.4186 46.6917 16.4186 46.4383 17.7311C48.0879 17.7311 49.7374 17.7311 51.4369 17.7311C51.4369 15.8485 50.9134 14.1559 49.9857 12.5257C49.5286 12.5257 49.4152 12.716 49.0888 13.034ZM22.5742 20.3339C22.5742 21.2465 22.5742 22.159 22.5742 23.0993C23.0531 23.0456 23.532 22.9919 24.0254 22.9366C24.0254 22.0777 24.0254 21.2188 24.0254 20.3339C23.5465 20.3339 23.0676 20.3339 22.5742 20.3339ZM26.6053 20.3339C26.3902 23.5413 26.3902 23.5413 27.3611 26.312C28.6956 27.622 30.0019 27.7226 31.7872 27.7399C32.9058 27.7237 32.9058 27.7237 33.8411 27.1457C34.0141 26.9398 34.1824 26.7297 34.345 26.5154C34.5422 26.331 34.7438 26.1511 34.9497 25.9765C35.0353 25.9 35.1209 25.8235 35.2092 25.7446C36.0456 25.0956 36.8692 25.0993 37.8924 25.214C38.7863 25.5808 39.3479 26.1526 40.0056 26.8566C40.732 27.5925 41.178 27.7202 42.1925 27.7385C42.3498 27.7375 42.5071 27.7365 42.6692 27.7354C42.8294 27.7346 42.9895 27.7338 43.1545 27.7329C44.4568 27.7016 45.3855 27.5013 46.3716 26.6094C48.0103 24.8319 47.4058 22.705 47.4058 20.3339C40.5416 20.3339 33.6775 20.3339 26.6053 20.3339ZM49.9857 20.3339C49.9857 21.1928 49.9857 22.0517 49.9857 22.9366C50.5178 22.9903 51.0499 23.044 51.5981 23.0993C51.5981 22.1867 51.5981 21.2741 51.5981 20.3339C51.066 20.3339 50.5339 20.3339 49.9857 20.3339ZM21.6067 26.483C20.8903 27.2584 20.4747 27.934 20.4799 29.0285C20.5509 30.0932 20.7871 30.8375 21.4858 31.6599C22.3307 32.396 22.8579 32.6969 24.0254 32.6969C24.0254 30.3349 24.0254 27.9729 24.0254 25.5394C22.9953 25.5394 22.3732 25.7867 21.6067 26.483ZM49.9857 25.5394C49.9857 27.9013 49.9857 30.2633 49.9857 32.6969C51.3901 32.5395 51.7969 32.473 52.7268 31.5582C53.5164 30.537 53.6887 29.5792 53.5331 28.3048C53.2087 27.2619 52.6867 26.5356 51.8324 25.8742C51.2848 25.6127 51.2848 25.6127 49.9857 25.5394ZM37.7311 28.3048C37.5558 28.5017 37.3892 28.7065 37.2272 28.9148C37.137 29.028 37.0468 29.1412 36.9539 29.2579C36.7323 29.5918 36.7323 29.5918 36.78 29.9613C36.9185 30.3284 36.9185 30.3284 37.4893 30.4703C37.6755 30.5609 37.8617 30.6515 38.0536 30.7448C38.245 31.4087 38.2362 31.8796 38.0536 32.5342C37.0096 32.7101 36.2545 32.7865 35.3125 32.2089C34.5765 31.4994 34.3676 30.9094 34.1838 29.9315C34.0964 29.9576 34.009 29.9838 33.919 30.0107C33.1296 30.1839 32.3076 30.1312 31.5031 30.1348C31.3195 30.1382 31.136 30.1415 30.9469 30.145C29.3204 30.1525 28.077 29.7631 26.6053 29.1181C26.5932 29.9395 26.5845 30.7609 26.5787 31.5824C26.5763 31.861 26.573 32.1396 26.5688 32.4182C26.5326 34.8673 26.6798 36.8696 28.2177 38.8784C28.3067 38.9969 28.3956 39.1153 28.4873 39.2374C29.0918 39.8999 29.5852 40.0684 30.4793 40.1276C30.7077 40.1351 30.9363 40.1385 31.1648 40.1373C31.8878 40.1357 32.322 40.2128 32.8938 40.6678C32.9659 40.7792 33.038 40.8906 33.1123 41.0053C33.349 41.3463 33.349 41.3463 33.714 41.4022C33.9079 41.4037 33.9079 41.4037 34.1057 41.4052C34.2526 41.4078 34.3995 41.4104 34.5508 41.413C34.709 41.4122 34.8673 41.4114 35.0303 41.4106C35.2745 41.4121 35.2745 41.4121 35.5236 41.4137C35.8679 41.4148 36.2122 41.4143 36.5564 41.4122C37.0842 41.41 37.6115 41.4155 38.1393 41.4217C38.4735 41.4219 38.8078 41.4216 39.142 41.4208C39.3003 41.4229 39.4585 41.4251 39.6215 41.4273C40.029 41.4216 40.3977 41.4112 40.7948 41.3185C41.1392 40.9428 41.1392 40.9428 41.2785 40.5051C41.7766 40.1124 42.2593 40.1643 42.8732 40.1763C43.9978 40.1871 44.7478 40.1197 45.5918 39.2952C46.8916 37.7341 47.4618 36.1043 47.4373 34.0904C47.4368 33.9476 47.4364 33.8048 47.4359 33.6576C47.4341 33.2052 47.4301 32.7528 47.4259 32.3004C47.4243 31.9921 47.4229 31.6838 47.4215 31.3755C47.418 30.623 47.4124 29.8706 47.4058 29.1181C47.2736 29.1749 47.1414 29.2318 47.0052 29.2903C46.8314 29.3643 46.6577 29.4384 46.4786 29.5146C46.3065 29.5882 46.1344 29.6618 45.9571 29.7377C44.8934 30.1616 43.9055 30.1298 42.77 30.1348C42.5838 30.1382 42.3975 30.1415 42.2057 30.145C40.72 30.1518 39.6579 30.0059 38.5474 28.9249C38.1919 28.5113 38.1919 28.5113 37.7311 28.3048ZM27.5727 42.6198C27.5704 42.802 27.568 42.9841 27.5656 43.1718C27.5562 43.8503 27.5438 44.5288 27.5304 45.2072C27.5251 45.5004 27.5206 45.7935 27.5169 46.0867C27.5114 46.5091 27.503 46.9314 27.494 47.3538C27.493 47.484 27.4919 47.6142 27.4909 47.7483C27.4638 48.7995 27.2118 49.5247 26.444 50.2654C28.0298 54.5056 29.6157 58.7459 31.2036 62.9853C31.887 64.8097 32.5699 66.6343 33.2522 68.4591C33.3239 68.6508 33.3956 68.8426 33.4694 69.0401C33.8178 69.9719 34.1662 70.9037 34.5144 71.8355C35.3137 73.9736 36.1171 76.11 36.9249 78.2448C37.4729 77.6245 37.6992 76.8934 37.9774 76.1257C38.0324 75.9768 38.0873 75.8279 38.1439 75.6744C38.2635 75.3502 38.3825 75.0257 38.5011 74.7011C38.6914 74.1803 38.8829 73.66 39.0748 73.1399C39.2776 72.59 39.4803 72.0402 39.6827 71.4902C40.3005 69.8113 40.9255 68.1353 41.5536 66.4604C41.8285 65.7269 42.1007 64.9926 42.3708 64.2573C42.9521 62.681 43.5394 61.1197 44.2357 59.591C45.7715 56.1472 46.0281 53.0547 45.9701 49.2783C45.9674 49.0936 45.9646 48.9088 45.9618 48.7185C45.9551 48.3709 45.9456 48.0234 45.9328 47.6759C45.908 46.7044 46.0116 46.0915 46.4383 45.2226C46.5024 44.8649 46.5024 44.8649 46.4856 44.542C46.4844 44.4392 46.4831 44.3363 46.4819 44.2304C46.4753 44.0421 46.4753 44.0421 46.4686 43.85C46.4586 43.4441 46.4486 43.0381 46.4383 42.6198C45.2677 42.6198 44.0971 42.6198 42.8909 42.6198C42.6655 43.0303 42.6655 43.0303 42.4356 43.4491C42.2813 43.7297 42.127 44.0103 41.9727 44.2908C41.8205 44.5678 41.6684 44.8448 41.5163 45.1219C41.4139 45.308 41.3115 45.4941 41.2061 45.6858C41.1527 45.7867 41.0992 45.8876 41.0442 45.9916C40.7059 46.6224 40.3394 47.2096 39.9275 47.7946C38.0897 50.5222 38.0974 52.999 38.1762 56.1755C38.1932 56.9477 38.196 57.72 38.2002 58.4923C38.2036 59.0912 38.2092 59.6898 38.2222 60.2886C38.2276 60.6075 38.2276 60.6075 38.233 60.9329C38.2372 61.1195 38.2414 61.3062 38.2457 61.4985C38.2151 61.9743 38.1542 62.2359 37.8924 62.6284C37.4394 62.8569 37.1042 62.8316 36.6024 62.7911C36.2515 62.609 36.2515 62.609 35.9574 62.3031C35.89 61.8416 35.89 61.8416 35.9078 61.2721C35.9124 61.0583 35.9171 60.8445 35.9218 60.6243C35.9256 60.5096 35.9294 60.395 35.9333 60.2769C35.9444 59.9134 35.9498 59.5503 35.9535 59.1867C35.9642 58.1527 35.9778 57.1191 36.0121 56.0856C36.1269 52.4669 35.7429 50.0413 33.6973 47.0126C33.1438 46.1668 32.6717 45.2769 32.1884 44.3889C32.0162 44.0798 31.8437 43.771 31.6706 43.4624C31.599 43.3345 31.5275 43.2065 31.4537 43.0747C31.3017 42.7896 31.3017 42.7896 31.1201 42.6198C30.8565 42.6057 30.5923 42.6024 30.3284 42.6039C30.0891 42.6047 30.0891 42.6047 29.845 42.6055C29.6771 42.6069 29.5093 42.6083 29.3364 42.6097C29.0837 42.6108 29.0837 42.6108 28.8259 42.6119C28.4081 42.6138 27.9904 42.6165 27.5727 42.6198ZM34.8287 43.9212C35.8609 45.882 35.8609 45.882 36.9249 47.8253C37.332 47.4519 37.5809 47.0698 37.8439 46.5837C37.9223 46.4392 38.0008 46.2947 38.0817 46.1459C38.1622 45.9955 38.2427 45.8452 38.3257 45.6903C38.4081 45.5386 38.4905 45.387 38.5755 45.2308C38.9794 44.6077 38.9794 44.6077 39.1823 43.9212C37.7456 43.9212 36.309 43.9212 34.8287 43.9212ZM23.1889 51.3126C23.0393 51.3965 22.8896 51.4803 22.7354 51.5667C22.7348 51.71 22.7342 51.8532 22.7336 52.0008C22.7275 53.3508 22.7184 54.7008 22.7058 56.0507C22.6994 56.7447 22.6942 57.4387 22.6917 58.1328C22.6893 58.8026 22.6837 59.4723 22.676 60.1421C22.6736 60.3976 22.6724 60.6531 22.6722 60.9087C22.6718 61.2666 22.6675 61.6244 22.6622 61.9823C22.6608 62.186 22.6593 62.3898 22.6579 62.5997C22.5592 63.2087 22.4155 63.4036 21.9292 63.7671C21.4455 63.8484 21.4455 63.8484 20.9617 63.7671C20.4986 63.4135 20.3348 63.2198 20.2331 62.6367C20.2316 62.4503 20.2302 62.264 20.2287 62.0719C20.2255 61.8603 20.2224 61.6486 20.2191 61.4306C20.2188 61.2003 20.2186 60.9701 20.2185 60.7399C20.2161 60.5037 20.2134 60.2676 20.2104 60.0315C20.2034 59.411 20.2001 58.7907 20.1977 58.1702C20.1946 57.5366 20.1878 56.9031 20.1813 56.2696C20.1692 55.0273 20.1611 53.7851 20.1555 52.5428C19.8968 52.6206 19.6382 52.6986 19.3795 52.7766C19.1635 52.8417 19.1635 52.8417 18.943 52.9081C18.6471 52.9989 18.3527 53.0948 18.0593 53.1935C18.0593 59.85 18.0593 66.5065 18.0593 73.3647C18.7511 73.3647 19.4428 73.3647 20.1555 73.3647C20.157 73.2006 20.1585 73.0364 20.1601 72.8673C20.1665 72.2573 20.1771 71.6474 20.189 71.0374C20.1935 70.7736 20.1969 70.5098 20.1992 70.246C20.2027 69.8663 20.2102 69.4869 20.2185 69.1073C20.2187 68.9897 20.2189 68.872 20.2191 68.7509C20.2351 68.1941 20.2792 67.8842 20.6151 67.434C20.9617 67.1832 20.9617 67.1832 21.4455 67.1019C22.0546 67.2043 22.2046 67.3387 22.5742 67.8339C22.6415 68.2786 22.6717 68.6623 22.6724 69.1073C22.6749 69.2154 22.6775 69.3234 22.6801 69.4348C22.6885 69.8364 22.6915 70.2382 22.6951 70.64C22.7084 71.5391 22.7217 72.4383 22.7354 73.3647C25.9281 73.3647 29.1207 73.3647 32.4101 73.3647C31.645 71.168 31.645 71.168 30.8449 68.9853C30.7928 68.8466 30.7408 68.7079 30.6872 68.5651C30.5194 68.1179 30.3511 67.6709 30.1829 67.2239C30.063 66.9048 29.9432 66.5857 29.8235 66.2666C29.5747 65.604 29.3259 64.9414 29.0769 64.2789C28.6493 63.1407 28.223 62.002 27.7969 60.8631C27.5069 60.0879 27.2166 59.3127 26.9256 58.5378C26.4602 57.298 25.995 56.0583 25.5414 54.8141C25.3769 54.363 25.2112 53.9123 25.0453 53.4617C24.9356 53.1617 24.8279 52.861 24.7202 52.5602C24.6238 52.2987 24.6238 52.2987 24.5255 52.0319C24.444 51.8066 24.444 51.8066 24.3608 51.5768C24.0472 50.973 23.7597 51.0529 23.1889 51.3126ZM11.2594 56.4196C9.89939 58.0466 9.3232 59.8407 9.33383 61.9519C9.33381 62.0758 9.33379 62.1997 9.33376 62.3273C9.33387 62.734 9.33512 63.1406 9.33639 63.5472C9.33669 63.8303 9.33692 64.1134 9.33708 64.3965C9.3377 65.1394 9.33928 65.8823 9.34107 66.6252C9.34301 67.5177 9.34375 68.4102 9.34469 69.3028C9.34625 70.6568 9.34934 72.0107 9.35214 73.3647C11.3741 73.3647 13.3961 73.3647 15.4794 73.3647C15.4794 67.084 15.4794 60.8032 15.4794 54.3322C14.0383 54.3322 12.2568 55.4268 11.2594 56.4196ZM45.9546 61.9777C45.3809 63.341 44.8441 64.7149 44.3289 66.1017C44.2549 66.3003 44.1809 66.499 44.1046 66.7037C43.9498 67.1194 43.7952 67.5353 43.6408 67.9512C43.4428 68.4845 43.244 69.0176 43.045 69.5505C42.8544 70.0613 42.6645 70.5724 42.4746 71.0835C42.4031 71.2749 42.3315 71.4664 42.2578 71.6637C42.1926 71.8397 42.1274 72.0158 42.0603 72.1972C41.9737 72.43 41.9737 72.43 41.8854 72.6675C41.7452 73.0254 41.7452 73.0254 41.7622 73.3647C45.0081 73.3647 48.2539 73.3647 51.5981 73.3647C51.2395 72.7617 51.0133 72.4238 50.5501 71.9515C48.0286 69.1267 46.8741 65.6234 46.1158 61.9777C46.0626 61.9777 46.0094 61.9777 45.9546 61.9777ZM9.35214 75.9674C9.35214 77.4705 9.35214 78.9736 9.35214 80.5222C9.9276 80.9093 10.1722 80.8878 10.8551 80.8867C10.9589 80.887 11.0627 80.8873 11.1696 80.8875C11.518 80.8881 11.8663 80.8863 12.2147 80.8845C12.4641 80.8844 12.7136 80.8845 12.9631 80.8847C13.641 80.8847 14.3189 80.8828 14.9968 80.8806C15.705 80.8785 16.4133 80.8783 17.1215 80.8779C18.4629 80.8769 19.8043 80.8743 21.1457 80.871C22.6728 80.8674 24.1998 80.8656 25.7268 80.8639C28.8683 80.8605 32.0098 80.8548 35.1512 80.8476C34.6577 79.188 34.0154 77.5761 33.3775 75.9674C25.4492 75.9674 17.5208 75.9674 9.35214 75.9674ZM40.6335 75.9674C40.0482 77.5779 39.4629 79.1883 38.8598 80.8476C42.176 80.8512 45.4922 80.8542 48.8083 80.856C50.348 80.8568 51.8877 80.858 53.4273 80.8598C54.7689 80.8615 56.1105 80.8625 57.4521 80.8629C58.1628 80.8631 58.8735 80.8636 59.5842 80.8648C60.2525 80.8659 60.9209 80.8662 61.5892 80.866C61.8351 80.866 62.0809 80.8663 62.3267 80.867C62.6613 80.8678 62.9959 80.8676 63.3305 80.8671C63.518 80.8673 63.7056 80.8674 63.8989 80.8676C64.3312 80.8778 64.3312 80.8778 64.6589 80.6849C64.6589 79.6649 64.6589 78.645 64.6589 77.5941C63.8937 77.903 63.216 78.2687 62.5017 78.6776C61.6125 79.1361 60.6189 79.2384 59.6509 78.9641C58.3493 78.418 56.9017 77.6173 55.8228 76.6955C55.0047 75.9974 54.4322 75.8276 53.374 75.8566C53.1662 75.8564 53.1662 75.8564 52.9541 75.8562C52.5003 75.8569 52.0468 75.8644 51.5931 75.8721C51.2768 75.8739 50.9605 75.8753 50.6442 75.8763C49.815 75.88 48.9859 75.8896 48.1567 75.9004C47.3093 75.9104 46.4619 75.9149 45.6145 75.9198C43.9541 75.9302 42.2938 75.9474 40.6335 75.9674Z" fill="#6CBCFF"/>
<path d="M52.4038 48.0824C52.6903 48.0785 52.6903 48.0785 52.9827 48.0745C53.1876 48.0745 53.3925 48.0745 53.6037 48.0744C53.9212 48.0726 53.9212 48.0726 54.2451 48.0707C54.6924 48.0685 55.1397 48.0682 55.5869 48.0692C56.159 48.0701 56.7309 48.0652 57.3029 48.0586C57.8502 48.0534 58.3975 48.0541 58.9449 48.0541C59.2523 48.0501 59.2523 48.0501 59.5659 48.046C61.1448 48.0585 61.1448 48.0585 61.6438 48.5329C61.9844 49.0688 62.0468 49.3156 61.9178 49.9401C61.6258 50.3723 61.6258 50.3723 61.1116 50.7534C60.4851 50.8669 59.8687 50.848 59.234 50.8328C58.9619 50.8311 58.9619 50.8311 58.6843 50.8294C58.1059 50.8248 57.5278 50.8146 56.9495 50.8042C56.557 50.8002 56.1645 50.7965 55.772 50.7931C54.8106 50.7842 53.8494 50.7706 52.8882 50.7534C52.8981 51.9415 52.9106 53.1295 52.9262 54.3175C52.9333 54.8694 52.9397 55.4213 52.944 55.9732C52.9333 59.3373 52.9333 59.3373 53.5331 62.6284C53.5692 62.7537 53.6053 62.879 53.6425 63.008C54.7106 66.3294 57.0782 68.7699 59.8217 70.762C59.9601 70.8658 60.0985 70.9696 60.2411 71.0765C60.6192 71.2918 60.6192 71.2918 61.0152 71.1674C64.1036 69.3776 66.6463 66.5079 67.8033 63.1063C67.8405 62.9972 67.8778 62.8881 67.9162 62.7758C68.7055 60.2177 68.5954 57.4781 68.6296 54.8304C68.6358 54.434 68.6421 54.0375 68.6485 53.6411C68.6639 52.6786 68.6776 51.716 68.6901 50.7534C68.4899 50.7628 68.2898 50.7723 68.0835 50.782C67.8188 50.7896 67.554 50.797 67.2893 50.8042C67.1576 50.8111 67.0259 50.8179 66.8903 50.8249C66.1757 50.8395 65.8826 50.8268 65.297 50.3741C64.9815 49.9401 64.9815 49.9401 64.8807 49.452C64.984 48.952 65.1131 48.6737 65.4814 48.321C66.1956 47.9238 67.082 48.0429 67.8738 48.0592C68.062 48.0574 68.2502 48.0556 68.4441 48.0538C70.2116 48.069 70.2116 48.069 70.9475 48.8014C71.2434 49.4043 71.3107 49.8928 71.3117 50.5617C71.3127 50.7487 71.3138 50.9356 71.3148 51.1282C71.3138 51.4299 71.3138 51.4299 71.3128 51.7377C71.3131 51.947 71.3135 52.1563 71.3138 52.372C71.3142 52.8157 71.3136 53.2594 71.312 53.7031C71.3102 54.2641 71.3113 54.8249 71.3132 55.3859C71.3291 60.9966 70.6076 65.9442 66.5939 70.1113C66.4792 70.239 66.3644 70.3667 66.2462 70.4983C64.9752 71.8662 62.7349 74.1385 60.7891 74.2797C59.6819 74.2488 58.8939 73.5288 58.048 72.8767C57.9553 72.8071 57.8626 72.7374 57.7671 72.6657C53.8258 69.7006 51.1845 66.0585 50.3782 61.0906C50.2492 60.0268 50.2621 58.9605 50.2654 57.8906C50.2652 57.6433 50.2649 57.396 50.2645 57.1487C50.264 56.6347 50.2647 56.1207 50.2662 55.6066C50.2681 54.9484 50.267 54.2903 50.2651 53.6321C50.2639 53.1233 50.2643 52.6145 50.2651 52.1057C50.2653 51.8628 50.265 51.62 50.2643 51.3772C50.2635 51.039 50.2647 50.7008 50.2665 50.3626C50.2668 50.1706 50.267 49.9785 50.2673 49.7806C50.3082 49.2897 50.3448 49.0337 50.6307 48.6387C51.2234 48.1807 51.6657 48.0884 52.4038 48.0824Z" fill="#6CBCFF"/>
<path d="M66.4326 55.1456C66.8458 55.4811 66.8458 55.4811 67.0776 55.9589C67.0787 56.9084 66.7774 57.3543 66.1549 58.0095C66.0536 58.1112 65.9524 58.2129 65.8481 58.3177C65.7019 58.4702 65.7019 58.4702 65.5527 58.6259C65.157 59.037 64.755 59.4415 64.352 59.8453C63.8791 60.3196 63.4153 60.7912 62.986 61.3067C62.345 62.057 61.65 62.7477 60.9503 63.4418C60.8562 63.5634 60.762 63.6851 60.665 63.8104C60.2463 64.1388 59.9211 64.2465 59.3879 64.2178C58.5101 63.9225 57.9092 63.1111 57.2921 62.4454C57.142 62.2888 56.9915 62.1325 56.8408 61.9765C56.4312 61.5481 56.0285 61.1146 55.6293 60.6764C55.537 60.5758 55.4447 60.4752 55.3496 60.3716C54.9696 59.9388 54.7104 59.6216 54.7223 59.0294C54.823 58.399 54.823 58.399 55.1657 57.9923C55.727 57.6969 55.9731 57.6225 56.5967 57.7483C57.3932 58.2568 57.9946 59.0094 58.5997 59.7271C58.8839 60.0606 59.1846 60.3718 59.4991 60.6764C60.0027 60.4527 60.3251 60.2009 60.6977 59.7944C60.8014 59.6822 60.9051 59.57 61.012 59.4545C61.1213 59.3343 61.2307 59.2141 61.3433 59.0904C61.4564 58.9677 61.5695 58.845 61.6861 58.7186C62.0331 58.3419 62.3787 57.964 62.724 57.5856C63.0285 57.2521 63.333 56.9185 63.638 56.5853C63.8183 56.3881 63.9981 56.1904 64.1774 55.9921C64.8775 55.2242 65.3789 54.9632 66.4326 55.1456Z" fill="#6CBCFF"/>
<path d="M63.7838 38.1436C63.904 38.1424 64.0242 38.1413 64.148 38.1401C64.5436 38.1372 64.9391 38.1391 65.3348 38.1413C65.6105 38.1409 65.8861 38.1403 66.1618 38.1394C66.7388 38.1385 67.3158 38.1399 67.8928 38.1429C68.6322 38.1466 69.3715 38.1445 70.1109 38.1406C70.6799 38.1382 71.2488 38.139 71.8177 38.1407C72.0904 38.1411 72.363 38.1406 72.6357 38.1391C73.0167 38.1374 73.3974 38.1399 73.7784 38.1436C73.8909 38.1422 74.0034 38.1409 74.1194 38.1396C74.6568 38.149 74.9353 38.1942 75.3666 38.5285C75.7016 38.9848 75.7733 39.2876 75.7848 39.8545C75.4413 40.5971 75.4413 40.5971 74.9786 40.8305C74.5893 40.849 74.2045 40.8578 73.815 40.8593C73.6952 40.8604 73.5753 40.8614 73.4518 40.8625C73.0544 40.8657 72.6569 40.8676 72.2595 40.8693C72.1238 40.8699 71.9881 40.8706 71.8483 40.8713C71.1302 40.8747 70.4121 40.877 69.6939 40.8785C68.9522 40.8803 68.2105 40.8859 67.4687 40.8924C66.8984 40.8966 66.3281 40.898 65.7578 40.8986C65.4843 40.8994 65.2109 40.9012 64.9375 40.9043C64.5546 40.9082 64.1719 40.9081 63.7889 40.9069C63.6199 40.9101 63.6199 40.9101 63.4474 40.9133C62.682 40.905 62.2924 40.7281 61.7566 40.1798C61.6495 39.8545 61.6495 39.8545 61.6558 39.5291C61.6537 39.4218 61.6516 39.3144 61.6495 39.2038C61.9737 38.2187 62.8893 38.1331 63.7838 38.1436Z" fill="#6CBCFF"/>
<path d="M63.7838 33.2634C63.904 33.2623 64.0242 33.2612 64.148 33.26C64.5436 33.2571 64.9391 33.259 65.3348 33.2612C65.6105 33.2608 65.8861 33.2601 66.1618 33.2593C66.7388 33.2584 67.3158 33.2598 67.8928 33.2628C68.6322 33.2665 69.3715 33.2644 70.1109 33.2605C70.6799 33.2581 71.2488 33.2589 71.8177 33.2606C72.0904 33.261 72.363 33.2605 72.6357 33.2589C73.0167 33.2573 73.3974 33.2598 73.7784 33.2634C73.8909 33.2621 74.0034 33.2608 74.1194 33.2594C74.6568 33.2689 74.9353 33.3141 75.3666 33.6484C75.7016 34.1047 75.7733 34.4075 75.7848 34.9743C75.4413 35.717 75.4413 35.717 74.9786 35.9504C74.5893 35.9688 74.2045 35.9777 73.815 35.9792C73.6952 35.9802 73.5753 35.9813 73.4518 35.9824C73.0544 35.9856 72.6569 35.9875 72.2595 35.9891C72.1238 35.9898 71.9881 35.9905 71.8483 35.9911C71.1302 35.9945 70.4121 35.9969 69.6939 35.9984C68.9522 36.0002 68.2105 36.0058 67.4687 36.0122C66.8984 36.0165 66.3281 36.0179 65.7578 36.0184C65.4843 36.0192 65.2109 36.0211 64.9375 36.0241C64.5546 36.0281 64.1719 36.0279 63.7889 36.0268C63.6199 36.0299 63.6199 36.0299 63.4474 36.0331C62.682 36.0249 62.2924 35.848 61.7566 35.2997C61.6495 34.9743 61.6495 34.9743 61.6558 34.649C61.6537 34.5416 61.6516 34.4343 61.6495 34.3237C61.9737 33.3385 62.8893 33.2529 63.7838 33.2634Z" fill="#6CBCFF"/>
<path d="M63.7838 28.3833C63.904 28.3822 64.0242 28.381 64.148 28.3798C64.5436 28.377 64.9391 28.3789 65.3348 28.3811C65.6105 28.3806 65.8861 28.38 66.1618 28.3792C66.7388 28.3782 67.3158 28.3796 67.8928 28.3827C68.6322 28.3864 69.3715 28.3842 70.1109 28.3803C70.6799 28.378 71.2488 28.3787 71.8177 28.3804C72.0904 28.3809 72.363 28.3803 72.6357 28.3788C73.0167 28.3772 73.3974 28.3797 73.7784 28.3833C73.8909 28.382 74.0034 28.3807 74.1194 28.3793C74.6568 28.3888 74.9353 28.4339 75.3666 28.7682C75.7016 29.2245 75.7733 29.5273 75.7848 30.0942C75.4413 30.8368 75.4413 30.8368 74.9786 31.0702C74.5893 31.0887 74.2045 31.0975 73.815 31.099C73.6952 31.1001 73.5753 31.1012 73.4518 31.1023C73.0544 31.1055 72.6569 31.1074 72.2595 31.109C72.1238 31.1097 71.9881 31.1103 71.8483 31.111C71.1302 31.1144 70.4121 31.1167 69.6939 31.1183C68.9522 31.1201 68.2105 31.1256 67.4687 31.1321C66.8984 31.1364 66.3281 31.1377 65.7578 31.1383C65.4843 31.1391 65.2109 31.141 64.9375 31.144C64.5546 31.148 64.1719 31.1478 63.7889 31.1467C63.6199 31.1498 63.6199 31.1498 63.4474 31.153C62.682 31.1448 62.2924 30.9679 61.7566 30.4196C61.6495 30.0942 61.6495 30.0942 61.6558 29.7689C61.6537 29.6615 61.6516 29.5541 61.6495 29.4435C61.9737 28.4584 62.8893 28.3728 63.7838 28.3833Z" fill="#6CBCFF"/>
<path d="M34.345 34.9743C34.5649 35.0549 34.7833 35.1397 35.0001 35.2284C36.5621 35.7859 38.2862 35.5926 39.7845 34.959C40.2623 34.7662 40.6105 34.7142 41.1173 34.8116C41.5808 35.0658 41.5808 35.0658 41.9235 35.4623C42.0243 36.0215 42.0243 36.0215 41.9235 36.601C41.2754 37.5381 40.209 37.8735 39.1521 38.161C37.1661 38.4531 35.0655 38.4026 33.2163 37.577C33.1055 37.5281 32.9947 37.4793 32.8806 37.4289C32.3671 37.1487 32.2503 36.9312 32.0775 36.3671C32.0886 35.7318 32.1837 35.4667 32.5713 34.9743C33.1323 34.6913 33.7435 34.8619 34.345 34.9743Z" fill="#6CBCFF"/>
<path d="M42.891 21.4726C43.2623 21.7763 43.4841 22.0186 43.6972 22.4486C43.7213 22.8174 43.7329 23.1872 43.7375 23.5568C43.7417 23.7558 43.7458 23.9548 43.7501 24.1598C43.6938 24.7627 43.574 25.0618 43.2135 25.5394C42.7534 25.7714 42.4339 25.7525 41.9235 25.702C41.4946 25.465 41.4946 25.465 41.1173 25.0513C40.9976 24.5609 41.0046 24.0901 41.0165 23.5873C41.0134 23.456 41.0103 23.3248 41.0071 23.1895C41.0126 22.509 41.0237 22.2251 41.4959 21.7115C42.0188 21.4193 42.302 21.3714 42.891 21.4726Z" fill="#6CBCFF"/>
<path d="M32.2488 21.4726C32.6201 21.7763 32.8419 22.0186 33.0551 22.4486C33.0792 22.8174 33.0908 23.1872 33.0954 23.5568C33.0995 23.7558 33.1037 23.9548 33.108 24.1598C33.0516 24.7627 32.9318 25.0618 32.5713 25.5394C32.1113 25.7714 31.7918 25.7525 31.2814 25.702C30.8524 25.465 30.8524 25.465 30.4752 25.0513C30.3554 24.5609 30.3624 24.0901 30.3744 23.5873C30.3713 23.456 30.3681 23.3248 30.3649 23.1895C30.3705 22.509 30.3815 22.2251 30.8537 21.7115C31.3767 21.4193 31.6599 21.3714 32.2488 21.4726Z" fill="#6CBCFF"/>
<path d="M59.0154 38.2278C59.4901 38.5643 59.6351 38.7986 59.8115 39.3563C59.8236 39.9519 59.6948 40.2011 59.3379 40.6679C58.8778 40.8999 58.5583 40.881 58.0479 40.8305C57.5844 40.5865 57.5844 40.5865 57.2417 40.1798C57.1261 39.7206 57.1261 39.3377 57.2417 38.8785C57.7674 38.2546 58.2161 38.0905 59.0154 38.2278Z" fill="#6CBCFF"/>
<path d="M59.0154 33.3477C59.4901 33.6842 59.6351 33.9185 59.8115 34.4762C59.8236 35.0718 59.6948 35.3209 59.3379 35.7877C58.8778 36.0198 58.5583 36.0009 58.0479 35.9504C57.5844 35.7064 57.5844 35.7064 57.2417 35.2997C57.1261 34.8405 57.1261 34.4576 57.2417 33.9983C57.7674 33.3745 58.2161 33.2104 59.0154 33.3477Z" fill="#6CBCFF"/>
<path d="M59.0154 28.4674C59.4901 28.804 59.6351 29.0382 59.8115 29.5959C59.8236 30.1915 59.6948 30.4407 59.3379 30.9075C58.8778 31.1395 58.5583 31.1206 58.0479 31.0701C57.5844 30.8261 57.5844 30.8261 57.2417 30.4195C57.1261 29.9603 57.1261 29.5773 57.2417 29.1181C57.7674 28.4942 58.2161 28.3302 59.0154 28.4674Z" fill="#6CBCFF"/>
</g>
<defs>
<clipPath id="clip0_87_267">
<rect width="82.5571" height="83.2877" fill="white"/>
</clipPath>
</defs>
</svg>
