<svg width="70" height="71" viewBox="0 0 70 71" fill="none" xmlns="http://www.w3.org/2000/svg">
<g clip-path="url(#clip0_87_253)">
<path d="M4.98453 11.436C5.12008 11.4345 5.12008 11.4345 5.25838 11.4331C5.5564 11.4307 5.85424 11.4323 6.15226 11.4341C6.35991 11.4337 6.56757 11.4332 6.77522 11.4325C7.21024 11.4317 7.64519 11.4329 8.08019 11.4354C8.63696 11.4386 9.19359 11.4368 9.75035 11.4335C10.1792 11.4315 10.6079 11.4321 11.0367 11.4336C11.242 11.4339 11.4472 11.4335 11.6524 11.4322C11.9398 11.4308 12.2269 11.4329 12.5142 11.436C12.7592 11.4366 12.7592 11.4366 13.009 11.4373C13.5264 11.5203 13.7512 11.6885 14.1216 12.0548C14.3225 12.46 14.274 12.8705 14.2707 13.3145C14.2705 13.4114 14.2703 13.5083 14.2701 13.6081C14.2694 13.918 14.2676 14.2278 14.2659 14.5377C14.2652 14.7476 14.2646 14.9576 14.2641 15.1675C14.2626 15.6825 14.2602 16.1974 14.2574 16.7124C14.3777 16.711 14.3777 16.711 14.5003 16.7096C15.3351 16.7005 16.1699 16.6943 17.0048 16.6898C17.3163 16.6877 17.6278 16.6849 17.9392 16.6814C18.3872 16.6764 18.8351 16.674 19.2831 16.6722C19.4221 16.6701 19.5612 16.668 19.7045 16.6658C20.965 16.6655 20.965 16.6655 21.454 17.1233C21.9872 17.8646 21.9257 18.6745 21.9309 19.5538C21.9333 19.7077 21.9357 19.8616 21.9382 20.0201C21.9456 20.51 21.9502 20.9999 21.9547 21.4898C21.9592 21.8226 21.9639 22.1554 21.9688 22.4883C21.9803 23.3027 21.9896 24.1171 21.9972 24.9315C22.2117 24.7376 22.4262 24.5435 22.6405 24.3493C22.76 24.2413 22.8794 24.1332 23.0025 24.0219C23.3142 23.736 23.6195 23.4448 23.9236 23.1507C24.3986 22.7361 24.7459 22.5786 25.3918 22.6028C26.0634 22.8764 26.5143 23.2779 27.0042 23.8014C27.1475 23.9504 27.2911 24.0992 27.4349 24.2477C27.5038 24.3189 27.5727 24.3901 27.6436 24.4635C27.8843 24.7064 28.1366 24.9318 28.396 25.1541C28.9476 25.627 29.4498 26.1442 29.9549 26.6669C30.2759 26.9934 30.2759 26.9934 30.6434 27.2758C30.9786 27.5504 31.2087 27.766 31.2632 28.2131C31.2626 28.3144 31.262 28.4157 31.2613 28.52C31.2613 28.6368 31.2613 28.7536 31.2612 28.8739C31.2599 28.996 31.2585 29.1181 31.257 29.2439C31.2568 29.3566 31.2565 29.4693 31.2562 29.5854C31.2548 30.0062 31.251 30.4269 31.2475 30.8476C31.2419 31.7885 31.2363 32.7293 31.2305 33.6987C34.5464 33.6987 37.8622 33.6987 41.2786 33.6987C41.2786 32.7493 41.2786 31.8 41.2786 30.822C40.9201 30.7767 40.5616 30.7315 40.1923 30.685C38.7701 30.246 37.665 29.4502 36.6619 28.3562C36.5982 28.291 36.5345 28.2259 36.4688 28.1587C34.9074 26.4738 34.5265 24.3757 34.5875 22.1565C34.6666 20.4619 35.3627 18.6768 36.5516 17.4572C37.1194 16.8667 37.2718 16.2825 37.4798 15.4998C37.8512 14.2919 38.7328 13.3504 39.7956 12.7055C41.2199 11.9596 42.7417 11.8229 44.312 12.149C45.7605 12.6409 46.9747 13.6873 47.6944 15.0514C47.8838 15.4582 47.995 15.8574 48.1018 16.2928C48.2952 16.9934 48.6542 17.3724 49.1456 17.8891C50.5062 19.493 50.8813 21.7128 50.7543 23.7575C50.502 25.7799 49.5268 27.8791 47.932 29.1781C46.6978 30.0694 45.6411 30.6314 44.1301 30.822C44.1301 31.7713 44.1301 32.7206 44.1301 33.6987C48.3421 33.6987 52.5541 33.6987 56.8938 33.6987C56.8938 32.7493 56.8938 31.8 56.8938 30.822C56.5353 30.8304 56.1769 30.8389 55.8075 30.8476C54.0063 30.8579 54.0063 30.8579 53.2642 30.2039C52.7253 29.6292 52.4093 29.0418 52.4147 28.2278C52.4922 27.3304 52.7805 26.5818 53.1322 25.7593C53.1906 25.619 53.2491 25.4787 53.3094 25.3342C53.4956 24.8882 53.6841 24.4433 53.8726 23.9983C53.9972 23.7011 54.1217 23.4039 54.246 23.1066C54.5294 22.4294 54.8142 21.7529 55.1006 21.077C55.2172 20.798 55.3314 20.518 55.444 20.2373C55.5031 20.0903 55.5622 19.9434 55.6231 19.792C55.6762 19.6584 55.7292 19.5247 55.7839 19.387C55.9893 18.9414 56.2424 18.6608 56.6222 18.3562C56.7175 18.2771 56.8127 18.198 56.9108 18.1165C57.5289 17.7008 58.2167 17.7355 58.9306 17.8083C59.787 18.033 60.1702 18.5203 60.6335 19.2476C60.9362 19.7695 61.1654 20.3098 61.3874 20.8706C61.4356 20.989 61.4837 21.1074 61.5334 21.2293C61.6854 21.6039 61.8356 21.9791 61.9857 22.3545C62.1358 22.7261 62.2863 23.0976 62.4368 23.4691C62.5343 23.71 62.6316 23.9511 62.7286 24.1922C63.0747 25.0506 63.4339 25.9023 63.8037 26.7505C64.1755 27.6691 64.2106 28.5356 63.8342 29.4623C63.4422 30.1465 62.7951 30.5985 62.0536 30.822C61.6538 30.8533 61.2577 30.8478 60.857 30.8391C60.4902 30.8334 60.1233 30.8278 59.7453 30.822C59.7453 31.7713 59.7453 32.7206 59.7453 33.6987C60.0173 33.6951 60.2894 33.6915 60.5697 33.6878C61.4693 33.6764 62.369 33.6689 63.2687 33.6632C63.8141 33.6596 64.3594 33.6548 64.9048 33.647C65.4312 33.6395 65.9577 33.6355 66.4842 33.6337C66.6849 33.6324 66.8856 33.6299 67.0863 33.6262C67.3678 33.6213 67.6491 33.6206 67.9307 33.6209C68.0908 33.6194 68.2509 33.6179 68.4158 33.6163C68.9713 33.7234 69.1725 33.9448 69.5218 34.3836C69.6053 34.7635 69.6053 34.7635 69.6024 35.1788C69.6024 35.3334 69.6024 35.488 69.6023 35.6473C69.5961 35.8948 69.5961 35.8948 69.5897 36.1473C69.5858 36.4046 69.5858 36.4046 69.5818 36.6671C69.4086 44.1077 66.6012 51.1827 62.0536 56.9863C61.9434 57.1285 61.8331 57.2706 61.7195 57.4171C59.9998 59.5488 58.0241 61.5483 55.8075 63.1507C55.6249 63.2862 55.4422 63.4218 55.2596 63.5574C51.1454 66.58 46.5 68.5933 41.5162 69.6233C41.3675 69.6544 41.3675 69.6544 41.2158 69.686C39.101 70.0982 37.0031 70.1928 34.8543 70.1884C34.6487 70.1883 34.6487 70.1883 34.4389 70.1882C30.6513 70.1787 26.1016 69.8981 22.6761 68.0822C22.2711 67.6654 22.0555 67.3708 22.0566 66.7809C22.0775 66.2738 22.1253 66.1741 22.4554 65.7535C23.0242 65.3163 23.2782 65.3336 23.9646 65.4203C24.5169 65.5162 25.0383 65.6893 25.57 65.8648C33.6262 68.4052 42.4413 67.351 49.8823 63.4349C50.9514 62.8559 51.9652 62.2125 52.9561 61.5069C53.047 61.4427 53.1378 61.3785 53.2315 61.3123C54.6509 60.3004 55.9222 59.168 57.1654 57.9452C57.3042 57.8107 57.443 57.6763 57.5818 57.5418C63.2882 51.921 65.9423 44.2975 66.6703 36.4384C66.2618 36.4243 65.8568 36.42 65.4483 36.4213C65.3343 36.4163 65.2204 36.4114 65.103 36.4063C64.7261 36.4122 64.4479 36.4517 64.0904 36.5754C63.824 36.8404 63.824 36.8404 63.5928 37.1797C62.9872 37.9824 62.3111 38.6863 61.6044 39.3986C61.4718 39.5328 61.3393 39.6671 61.2068 39.8014C60.9312 40.0805 60.6552 40.359 60.3787 40.6371C60.0273 40.9909 59.6774 41.3462 59.328 41.7019C59.0555 41.9788 58.7821 42.2547 58.5084 42.5304C58.317 42.7236 58.1265 42.9177 57.936 43.1118C56.6127 44.4373 55.5176 45.2403 53.6228 45.2526C53.5056 45.2546 53.3885 45.2566 53.2678 45.2587C52.8951 45.265 52.5225 45.2697 52.1498 45.274C51.6592 45.2797 51.1686 45.287 50.678 45.2954C50.5109 45.2965 50.5109 45.2965 50.3406 45.2976C48.8994 45.3226 48.2215 45.7718 47.2287 46.7974C47.1128 46.9147 46.997 47.0319 46.8776 47.1526C46.6337 47.4 46.3907 47.6482 46.1484 47.8971C45.7766 48.279 45.4023 48.6582 45.0275 49.0371C44.7908 49.2779 44.5542 49.5187 44.3178 49.7598C44.2057 49.8736 44.0935 49.9875 43.978 50.1049C43.8236 50.2639 43.8236 50.2639 43.666 50.4262C43.5297 50.566 43.5297 50.566 43.3905 50.7085C43.0282 51.1386 43.0253 51.5392 43.0151 52.081C43.0113 52.2219 43.0074 52.3627 43.0035 52.5078C42.9965 52.8014 42.9905 53.095 42.9854 53.3886C42.9161 55.7326 41.9691 57.048 40.3535 58.6644C40.2379 58.7838 40.1223 58.9032 40.0032 59.0261C38.8927 60.1456 37.716 60.99 36.0933 61.0103C34.8784 60.9838 33.9522 60.7111 33.0509 59.87C32.8744 59.7054 32.8744 59.7054 32.6943 59.5375C32.5075 59.3596 32.5075 59.3596 32.3168 59.1781C32.1232 58.9942 32.1232 58.9942 31.9257 58.8067C31.5862 58.4818 31.2509 58.1528 30.9173 57.8218C30.7806 57.6868 30.6431 57.5527 30.5047 57.4195C30.2996 57.2218 30.0973 57.0215 29.8955 56.8205C29.7768 56.7042 29.6582 56.5879 29.536 56.4682C28.5904 55.3599 28.4168 54.1486 28.4331 52.7339C28.4321 52.5683 28.431 52.4028 28.4298 52.2322C28.4267 51.7079 28.428 51.1837 28.43 50.6593C28.4305 50.1335 28.43 49.6077 28.4272 49.0819C28.4255 48.7561 28.4259 48.4303 28.4285 48.1045C28.4249 47.0266 28.3607 46.1428 27.6121 45.326C27.4709 45.1891 27.3279 45.0539 27.1835 44.9203C27.027 44.7684 26.8705 44.6166 26.7141 44.4647C26.4695 44.2315 26.2242 43.999 25.9785 43.767C25.739 43.5397 25.5023 43.3097 25.2655 43.0795C25.1931 43.0129 25.1207 42.9462 25.046 42.8775C24.3409 42.1893 24.2172 41.6945 23.7624 40.685C23.7624 39.2836 23.7624 37.8822 23.7624 36.4384C20.3569 36.4384 16.9514 36.4384 13.4427 36.4384C13.0915 40.2419 13.0915 40.2419 14.4134 42.6306C14.563 42.7694 14.563 42.7694 14.7157 42.911C15.8819 44.0623 16.4514 45.2875 16.4747 46.9247C16.475 47.0533 16.4753 47.1819 16.4756 47.3144C16.477 47.5172 16.477 47.5172 16.4783 47.7242C16.4797 48.0094 16.4804 48.2946 16.4803 48.5798C16.4809 49.0127 16.4858 49.4454 16.491 49.8783C16.4918 50.1566 16.4923 50.435 16.4926 50.7133C16.4945 50.8411 16.4965 50.9688 16.4985 51.1005C16.4881 52.6341 15.8787 53.8753 14.806 54.9571C14.7405 55.0218 14.675 55.0864 14.6075 55.1531C14.539 55.2218 14.4704 55.2906 14.3998 55.3615C14.1832 55.5784 13.9658 55.7944 13.7482 56.0103C13.6002 56.1583 13.4522 56.3063 13.3043 56.4544C12.9438 56.8151 12.5825 57.1749 12.2207 57.5343C12.43 57.9789 12.6513 58.2759 13.0014 58.6216C13.0977 58.717 13.194 58.8123 13.2931 58.9106C13.5338 59.1362 13.7778 59.3429 14.0368 59.5463C14.4163 59.8836 14.5596 60.0527 14.6648 60.548C14.6648 61.1789 14.5955 61.43 14.1811 61.9093C13.7832 62.195 13.4127 62.3099 12.9149 62.2746C11.783 61.948 10.7992 60.6686 9.99719 59.8545C9.80871 59.6635 9.80871 59.6635 9.61642 59.4686C8.75009 58.5802 7.94924 57.6756 7.22567 56.6661C7.05203 56.4262 6.87299 56.1912 6.69274 55.9563C3.46001 51.7001 1.35518 46.4928 0.407397 41.2329C0.385562 41.1146 0.363726 40.9962 0.341229 40.8743C0.0623392 39.3062 -0.044586 37.7483 -0.067849 36.1559C-0.0720171 35.9904 -0.0761851 35.8249 -0.0804794 35.6544C-0.0805122 35.499 -0.080545 35.3437 -0.0805788 35.1836C-0.0815415 35.0457 -0.0825042 34.9077 -0.0834961 34.7656C0.0365189 34.2168 0.236673 34.039 0.678967 33.6987C1.12637 33.6159 1.55843 33.6337 2.01135 33.6559C2.19133 33.6605 2.19133 33.6605 2.37495 33.6652C2.66969 33.6733 2.96431 33.6855 3.25888 33.6987C3.25863 33.5921 3.25837 33.4856 3.25812 33.3758C3.25212 30.7828 3.24763 28.1897 3.2448 25.5967C3.2434 24.3428 3.2415 23.0888 3.23839 21.8348C3.23568 20.7418 3.23393 19.6489 3.23332 18.5559C3.23297 17.9772 3.23214 17.3985 3.23016 16.8198C3.22832 16.2749 3.22775 15.7301 3.22816 15.1852C3.22808 14.9854 3.22755 14.7856 3.2265 14.5858C3.22515 14.3126 3.22564 14.0393 3.22622 13.7661C3.22597 13.6133 3.22572 13.4605 3.22546 13.3031C3.27267 12.7008 3.4087 12.2235 3.76205 11.7339C4.18462 11.426 4.46561 11.4374 4.98453 11.436ZM6.11035 14.3836C6.11035 15.1521 6.11035 15.9206 6.11035 16.7124C7.8579 16.7124 9.60545 16.7124 11.406 16.7124C11.406 15.9439 11.406 15.1754 11.406 14.3836C9.65841 14.3836 7.91086 14.3836 6.11035 14.3836ZM40.2772 16.1815C40.0605 16.6206 39.9674 17.0745 39.8613 17.5514C39.701 18.2523 39.5262 18.5715 38.9702 19.0411C37.7779 20.4301 37.3489 21.8777 37.4464 23.6911C37.5769 24.9086 38.2539 25.8854 39.106 26.7124C39.2321 26.8367 39.3581 26.961 39.4879 27.0891C39.8751 27.3648 40.1898 27.5198 40.6267 27.6905C40.7488 27.7386 40.8709 27.7867 40.9968 27.8362C41.0898 27.8722 41.1828 27.9082 41.2786 27.9452C41.2799 27.7863 41.2811 27.6273 41.2824 27.4635C41.2878 26.8732 41.2968 26.283 41.3068 25.6928C41.3106 25.4374 41.3135 25.182 41.3154 24.9267C41.3183 24.5593 41.3246 24.1922 41.3316 23.8249C41.3318 23.7109 41.332 23.5969 41.3321 23.4794C41.352 22.6848 41.352 22.6848 41.6741 22.261C42.2052 21.8746 42.5275 21.9056 43.1621 21.9847C43.4511 22.0548 43.4511 22.0548 43.7227 22.3117C44.0064 22.9198 44.0231 23.4732 44.0372 24.1326C44.0401 24.2415 44.0429 24.3504 44.0458 24.4626C44.0547 24.8101 44.0627 25.1576 44.0707 25.5052C44.0765 25.7409 44.0824 25.9766 44.0884 26.2123C44.103 26.7899 44.1167 27.3676 44.1301 27.9452C45.6927 27.2755 46.7582 26.5114 47.5247 24.9315C48.1122 23.3864 48.0211 21.9161 47.3613 20.4105C47.0326 19.8575 46.6011 19.4346 46.1512 18.9841C45.5624 18.3628 45.4225 17.7956 45.2879 16.9665C45.1377 16.1455 44.6634 15.6781 43.9943 15.2055C42.6296 14.3812 41.1648 15.0033 40.2772 16.1815ZM6.11035 19.5891C6.11035 24.2452 6.11035 28.9014 6.11035 33.6987C10.3672 33.6987 14.6241 33.6987 19.0099 33.6987C19.0099 29.0425 19.0099 24.3863 19.0099 19.5891C14.753 19.5891 10.4962 19.5891 6.11035 19.5891ZM58.2517 21.2329C57.6434 22.3862 57.1477 23.5854 56.6513 24.7905C56.5107 25.1314 56.3688 25.4717 56.2268 25.8121C56.137 26.0292 56.0473 26.2463 55.9576 26.4635C55.9152 26.565 55.8728 26.6664 55.8291 26.771C55.6603 27.1833 55.536 27.4945 55.536 27.9452C57.3731 27.9452 59.2103 27.9452 61.1031 27.9452C60.2192 25.6987 59.307 23.4648 58.3875 21.2329C58.3426 21.2329 58.2978 21.2329 58.2517 21.2329ZM24.9844 26.1644C24.9284 26.2225 24.8724 26.2806 24.8147 26.3405C24.3896 26.776 23.9589 27.1957 23.4993 27.5942C23.4146 27.6706 23.3298 27.747 23.2426 27.8257C22.9477 28.0822 22.9477 28.0822 22.6585 28.2877C22.1328 28.7083 21.8898 29.0118 21.7739 29.6904C21.7418 30.2983 21.7669 30.8988 21.7935 31.5069C21.8159 32.2302 21.8383 32.9535 21.8614 33.6987C24.0122 33.6987 26.163 33.6987 28.379 33.6987C28.6941 31.0476 28.6941 31.0476 27.994 28.4846C27.6122 28.0679 27.1834 27.732 26.7143 27.4205C26.3924 27.2023 26.1215 26.9392 25.8416 26.6696C25.5348 26.3971 25.3831 26.2985 24.9844 26.1644ZM2.85152 36.4384C2.85152 37.5832 2.90447 38.5772 3.07217 39.6918C3.10847 39.9331 3.10847 39.9331 3.1455 40.1794C4.04313 45.8603 6.48406 50.9247 9.91232 55.4795C10.6469 55.168 11.1467 54.5539 11.6998 53.9934C11.8973 53.7937 12.0966 53.5959 12.296 53.3982C12.4213 53.2719 12.5466 53.1455 12.6758 53.0153C12.7903 52.9001 12.9049 52.785 13.023 52.6663C13.6124 51.9658 13.6217 51.3228 13.6241 50.442C13.625 50.3267 13.6259 50.2113 13.6269 50.0925C13.6282 49.8491 13.6289 49.6057 13.6288 49.3623C13.6294 48.9919 13.6344 48.6217 13.6395 48.2513C13.6403 48.0141 13.6408 47.7769 13.6411 47.5396C13.6431 47.4299 13.645 47.3201 13.647 47.207C13.6393 46.2443 13.3475 45.6715 12.6795 44.9674C12.5533 44.851 12.4271 44.7347 12.297 44.6148C11.5221 43.8731 10.797 42.9097 10.7055 41.7922C10.7024 41.6439 10.7024 41.6439 10.6992 41.4926C10.6964 41.3786 10.6937 41.2646 10.6908 41.1472C10.6886 41.028 10.6864 40.9089 10.6841 40.7861C10.6815 40.6761 10.679 40.5661 10.6764 40.4528C10.6671 40.0422 10.659 39.6315 10.6507 39.2209C10.6212 37.8436 10.6212 37.8436 10.5912 36.4384C8.03714 36.4384 5.48303 36.4384 2.85152 36.4384ZM26.4781 36.4384C26.2769 38.7573 26.2769 38.7573 27.0791 40.8125C27.2145 40.9453 27.3516 41.0762 27.4901 41.2056C27.5631 41.277 27.6361 41.3484 27.7114 41.422C27.9437 41.6489 28.178 41.8735 28.413 42.0976C31.0291 44.5999 31.0291 44.5999 31.1144 46.0989C31.1157 46.2287 31.117 46.3584 31.1183 46.4921C31.1201 46.6398 31.122 46.7875 31.1239 46.9397C31.1253 47.0986 31.1267 47.2576 31.1281 47.4214C31.1326 47.7586 31.1371 48.0958 31.1417 48.433C31.1481 48.9641 31.1541 49.4953 31.1595 50.0265C31.1649 50.5394 31.1719 51.0523 31.1791 51.5652C31.1802 51.7233 31.1814 51.8815 31.1825 52.0444C31.2 53.198 31.2506 54.0679 32.0814 54.9156C32.1589 54.9912 32.2364 55.0667 32.3163 55.1445C32.3963 55.2249 32.4763 55.3053 32.5588 55.3882C32.7272 55.5568 32.8965 55.7246 33.0666 55.8916C33.3271 56.1477 33.585 56.4062 33.8425 56.6653C34.0069 56.8292 34.1714 56.9929 34.3361 57.1565C34.4133 57.2337 34.4905 57.3109 34.5701 57.3904C35.0564 57.8662 35.3434 58.0601 36.0254 58.125C37.0946 58.0336 37.7993 57.1177 38.5205 56.387C38.675 56.2345 38.675 56.2345 38.8326 56.0788C39.7866 55.1172 40.0916 54.4921 40.1074 53.1256C40.1074 52.8145 40.1064 52.5034 40.1043 52.1923C40.1064 52.0407 40.1085 51.889 40.1106 51.7327C40.1099 51.5296 40.1099 51.5296 40.1092 51.3225C40.3606 49.8082 41.0975 48.8062 42.1622 47.7531C42.2873 47.6263 42.4124 47.4995 42.5413 47.3689C42.8044 47.1027 43.069 46.8383 43.335 46.5751C43.6726 46.2407 44.0062 45.9024 44.3386 45.5628C44.6606 45.2349 44.9858 44.9103 45.3108 44.5853C45.4286 44.4652 45.5465 44.345 45.668 44.2212C46.6921 43.2151 47.7342 42.5333 49.1972 42.5148C49.3083 42.5167 49.4194 42.5185 49.5339 42.5204C49.6531 42.5193 49.7723 42.5182 49.8951 42.517C50.2705 42.5139 50.6457 42.5152 51.0211 42.5172C51.3985 42.5177 51.7757 42.5172 52.153 42.5143C52.3862 42.5127 52.6194 42.513 52.8526 42.5157C54.1302 42.5097 54.7703 42.0677 55.6571 41.1764C55.771 41.059 55.8849 40.9417 56.0022 40.8209C56.181 40.6398 56.181 40.6398 56.3634 40.4551C56.6781 40.1359 56.9915 39.8155 57.3043 39.4945C57.5611 39.2317 57.8192 38.9701 58.0774 38.7086C58.3847 38.3972 58.6914 38.0851 58.998 37.7729C59.1138 37.6551 59.2296 37.5372 59.3489 37.4158C59.5074 37.2532 59.5074 37.2532 59.6692 37.0874C59.8096 36.9437 59.8096 36.9437 59.9529 36.7971C60.1679 36.6084 60.1679 36.6084 60.1527 36.4384C49.04 36.4384 37.9274 36.4384 26.4781 36.4384Z" fill="#6CBCFF"/>
<path d="M27.1569 0.547987C27.6972 0.916577 28.1894 1.31569 28.6505 1.78086C29.0355 1.78653 29.412 1.77911 29.7962 1.76374C31.2697 1.7377 32.3636 1.99404 33.4513 3.05334C33.5249 3.13068 33.5986 3.20803 33.6746 3.28771C33.7754 3.39225 33.8762 3.49679 33.9801 3.60449C34.7609 4.81421 34.9094 5.96521 34.7608 7.3973C34.5303 8.4196 33.9983 9.13728 33.2672 9.86306C33.1664 9.96477 33.0656 10.0665 32.9617 10.1713C31.8213 10.9034 30.6681 11.0413 29.3427 11.0317C29.1799 11.0322 29.0171 11.0328 28.8494 11.0333C28.5072 11.0337 28.1649 11.0327 27.8227 11.0304C27.303 11.0274 26.7836 11.0304 26.2639 11.0339C25.9295 11.0335 25.5951 11.0328 25.2607 11.0317C25.1074 11.0328 24.9542 11.0339 24.7963 11.0351C23.157 11.0159 21.7475 10.5502 20.5034 9.4521C19.2559 8.12295 18.9412 6.61258 18.9727 4.84112C19.0369 3.35929 19.7411 2.24108 20.784 1.23666C22.4985 -0.220704 25.1607 -0.579921 27.1569 0.547987ZM22.3233 3.7982C21.7811 4.5387 21.74 5.2694 21.8613 6.16443C22.0976 6.90782 22.5889 7.37746 23.2191 7.80826C23.6917 8.02829 24.0662 8.11738 24.5854 8.12203C24.7187 8.12378 24.8519 8.12553 24.9892 8.12733C25.2029 8.12779 25.2029 8.12779 25.4209 8.12825C25.6426 8.12962 25.6426 8.12962 25.8687 8.13102C26.1809 8.1324 26.493 8.13305 26.8052 8.133C27.282 8.1336 27.7587 8.13858 28.2355 8.14377C28.5391 8.14458 28.8428 8.14512 29.1465 8.14538C29.2886 8.14734 29.4308 8.14931 29.5773 8.15134C30.5762 8.14504 31.0158 7.97575 31.7566 7.30312C32.0047 6.78867 32.0265 6.31144 31.9094 5.75347C31.595 5.21598 31.2781 4.85624 30.6873 4.65758C29.9793 4.5889 29.6386 4.70198 29.0436 5.08138C28.5637 5.31297 28.0802 5.3021 27.5642 5.20552C27.2163 4.97484 27.0591 4.71936 26.8418 4.36595C26.238 3.3905 26.238 3.3905 25.2559 2.87675C24.0365 2.70028 23.1666 2.87874 22.3233 3.7982Z" fill="#6CBCFF"/>
<path d="M54.1446 4.1267C54.4929 4.49512 54.6311 4.85603 54.6618 5.35101C54.5755 5.96006 54.4692 6.14812 54.0422 6.57533C53.6222 6.71285 53.6222 6.71285 53.1596 6.78937C52.5019 6.89971 52.1572 7.00091 51.7339 7.53423C51.574 7.9722 51.595 8.20442 51.6915 8.66437C51.8232 9.0537 51.8232 9.0537 52.1017 9.13177C52.479 9.18792 52.8425 9.19731 53.2241 9.19967C53.3877 9.20108 53.5512 9.20248 53.7198 9.20393C53.896 9.20493 54.0723 9.20593 54.2539 9.20696C54.4372 9.20874 54.6205 9.21063 54.8038 9.21263C55.581 9.22105 56.3582 9.22848 57.1355 9.23305C57.6116 9.23592 58.0876 9.24076 58.5636 9.24685C58.8324 9.24972 59.1011 9.25044 59.3699 9.25112C59.6159 9.25452 59.6159 9.25452 59.8669 9.258C60.0829 9.25966 60.0829 9.25966 60.3033 9.26135C60.8904 9.34169 61.2472 9.57606 61.6292 10.0257C61.8046 10.468 61.8062 10.7575 61.7698 11.2243C61.5621 11.6991 61.2851 11.9673 60.8315 12.1918C60.169 12.2948 59.5079 12.2849 58.8393 12.2779C58.6428 12.278 58.4462 12.2784 58.2497 12.2789C57.8384 12.2793 57.4271 12.2773 57.0157 12.2735C56.4919 12.2689 55.9682 12.2697 55.4444 12.2723C55.0385 12.2737 54.6327 12.2725 54.2268 12.2704C54.0339 12.2697 53.841 12.2698 53.648 12.2706C52.2042 12.2747 50.8731 12.1275 49.7788 11.0889C48.8805 9.98597 48.5243 8.75331 48.6368 7.34641C48.8232 6.20462 49.5102 5.26189 50.3957 4.54996C51.3805 3.89943 53.0829 3.43966 54.1446 4.1267Z" fill="#6CBCFF"/>
<path d="M11.2521 27.7804C11.3705 27.7796 11.4888 27.7789 11.6108 27.7781C11.8612 27.7768 12.1116 27.7759 12.362 27.7753C12.7444 27.774 13.1266 27.7698 13.509 27.7654C13.7524 27.7645 13.9959 27.7638 14.2394 27.7633C14.4104 27.7608 14.4104 27.7608 14.5849 27.7582C15.2232 27.7606 15.6378 27.8044 16.1584 28.2192C16.5068 28.6879 16.4794 29.1571 16.4299 29.7261C16.1985 30.2513 16.0005 30.4696 15.4794 30.685C15.2074 30.7207 15.2074 30.7207 14.9175 30.7226C14.8083 30.7239 14.6991 30.7252 14.5865 30.7265C14.4113 30.7264 14.4113 30.7264 14.2325 30.7262C14.0507 30.727 14.0507 30.727 13.8652 30.7279C13.6092 30.7287 13.3532 30.7288 13.0972 30.7282C12.7062 30.7278 12.3154 30.731 11.9244 30.7345C11.6754 30.7348 11.4263 30.7349 11.1773 30.7347C11.0607 30.736 10.9442 30.7373 10.8241 30.7386C10.181 30.7335 9.75704 30.6932 9.23335 30.274C8.88413 29.8043 8.8936 29.3371 8.96178 28.7672C9.52472 27.7886 10.22 27.7857 11.2521 27.7804Z" fill="#6CBCFF"/>
<path d="M10.348 22.289C10.52 22.2863 10.52 22.2863 10.6955 22.2837C10.8189 22.2834 10.9424 22.283 11.0697 22.2827C11.1971 22.2818 11.3245 22.2809 11.4557 22.28C11.7253 22.2786 11.9949 22.2779 12.2645 22.278C12.6764 22.2774 13.0881 22.2724 13.5 22.2672C13.762 22.2664 14.024 22.2659 14.2861 22.2656C14.409 22.2636 14.5319 22.2617 14.6586 22.2596C15.2302 22.2638 15.5346 22.2779 16.0293 22.5895C16.4357 23.0302 16.4842 23.354 16.4777 23.9581C16.3915 24.4791 16.1298 24.7124 15.751 25.0685C15.2079 25.2524 14.6516 25.2301 14.0845 25.2333C13.9757 25.2341 13.8669 25.2349 13.7548 25.2357C13.5249 25.2369 13.295 25.2378 13.0652 25.2384C12.715 25.2397 12.365 25.244 12.0148 25.2483C11.791 25.2492 11.5672 25.2499 11.3433 25.2504C11.1874 25.2529 11.1874 25.2529 11.0282 25.2555C10.2628 25.2524 9.69222 25.0987 9.11456 24.5548C8.89345 24.1086 8.91043 23.78 8.96181 23.2877C9.27124 22.6187 9.60435 22.2967 10.348 22.289Z" fill="#6CBCFF"/>
<path d="M18.7382 62.8767C19.1929 63.2016 19.3707 63.4268 19.5529 63.9555C19.5529 64.5211 19.4284 64.8548 19.1456 65.3425C18.6829 65.682 18.4191 65.7535 17.8471 65.7535C17.2677 65.5834 17.0441 65.4344 16.7015 64.9315C16.5706 64.2922 16.6119 63.8432 16.9561 63.2877C17.4897 62.781 18.031 62.7683 18.7382 62.8767Z" fill="#6CBCFF"/>
<path d="M66.3987 9.31502C67.1563 9.74761 67.1563 9.74761 67.3492 10.1369C67.4246 10.7715 67.4356 11.2303 67.0946 11.7808C66.6502 12.2028 66.3361 12.2375 65.7251 12.2319C65.2946 12.1695 65.0654 11.9516 64.7693 11.6438C64.5336 11.1681 64.5518 10.6559 64.6335 10.1369C65.165 9.45969 65.5472 9.23242 66.3987 9.31502Z" fill="#6CBCFF"/>
</g>
<defs>
<clipPath id="clip0_87_253">
<rect width="69.5218" height="70.137" fill="white"/>
</clipPath>
</defs>
</svg>
