<svg width="84" height="84" viewBox="0 0 84 84" fill="none" xmlns="http://www.w3.org/2000/svg">
<g clip-path="url(#clip0_87_286)">
<path d="M41.3868 -0.084827C41.8056 -0.0813396 42.2239 -0.0848046 42.6427 -0.0889573C45.2077 -0.0932319 45.2077 -0.0932319 46.3613 0.650688C46.5191 0.742927 46.5191 0.742927 46.6801 0.83703C47.8779 1.5595 48.493 2.79291 48.8916 4.09157C48.964 4.39213 48.964 4.39213 48.964 4.71747C49.1181 4.75616 49.1181 4.75616 49.2754 4.79563C53.0421 5.77803 56.3482 7.55618 59.5377 9.76028C59.5968 9.672 59.6559 9.58372 59.7168 9.49276C60.2264 8.76764 60.6144 8.24551 61.4897 7.97089C62.8045 7.77747 63.6473 8.18178 64.6942 8.9393C65.8964 9.87741 67.0019 10.8904 67.5085 12.363C67.618 13.3303 67.4138 14.0212 66.8579 14.8031C66.4483 15.2158 66.0155 15.5853 65.5565 15.9418C65.7733 16.6831 66.0732 17.2667 66.4918 17.9142C68.4169 20.9743 68.4169 20.9743 68.1592 22.286C67.7457 22.7725 67.4829 22.9109 66.8579 23.0282C66.1917 22.9032 65.9988 22.6331 65.5565 22.1233C65.3099 21.7128 65.1072 21.2865 64.9058 20.8524C64.5555 20.1219 64.2086 19.4087 63.7671 18.7275C63.4418 18.2192 63.4418 18.2192 63.4418 17.8938C62.523 18.6296 61.6237 19.374 60.7577 20.1712C60.1532 20.7247 59.5437 21.2692 58.9175 21.7979C58.7789 21.9154 58.6403 22.0328 58.4974 22.1538C57.6463 22.7459 56.8871 22.8494 55.8826 22.7193C54.959 22.477 54.2764 21.8755 53.773 21.0761C53.3103 20.0212 53.3109 19.3389 53.6806 18.2798C53.9459 17.6539 54.3232 17.1346 54.7287 16.5925C54.9022 16.3538 55.0757 16.1151 55.2491 15.8763C55.3385 15.7545 55.4279 15.6327 55.52 15.5072C55.986 14.8681 56.4395 14.2201 56.8942 13.5729C57.0594 13.3388 57.2246 13.1047 57.3899 12.8707C57.5081 12.7032 57.6264 12.5356 57.7483 12.363C56.9381 10.5511 53.376 9.15034 51.5991 8.43921C50.6748 8.09445 49.7413 7.78199 48.8013 7.48288C48.804 7.59459 48.8067 7.70629 48.8095 7.82138C48.8321 9.59702 48.6983 11.3576 48.5694 13.1274C48.545 13.467 48.5207 13.8066 48.4963 14.1461C48.4453 14.8542 48.3937 15.5623 48.3417 16.2703C48.2753 17.1743 48.2114 18.0784 48.1481 18.9826C48.0987 19.6826 48.0476 20.3824 47.9961 21.0822C47.9718 21.4155 47.9482 21.7487 47.9251 22.082C47.8927 22.5487 47.8579 23.0152 47.8226 23.4817C47.8137 23.617 47.8048 23.7523 47.7956 23.8918C47.6853 25.2826 47.4046 26.8119 46.3613 27.8168C45.0065 28.7351 43.8378 28.8366 42.2377 28.8498C41.9997 28.8524 41.7617 28.8569 41.5237 28.8631C39.8312 28.9072 38.5295 28.7716 37.1805 27.6497C37.0966 27.5471 37.0128 27.4446 36.9263 27.3389C36.7955 27.1858 36.7955 27.1858 36.662 27.0295C36.2123 26.323 36.0716 25.5741 36.0031 24.7502C35.9862 24.5531 35.9694 24.3561 35.9521 24.1531C35.9345 23.9306 35.917 23.7081 35.8995 23.4857C35.88 23.2477 35.8604 23.0098 35.8408 22.7718C35.766 21.851 35.6954 20.9298 35.625 20.0086C35.6088 19.7977 35.5927 19.5869 35.5761 19.3697C35.4543 17.7769 35.3345 16.184 35.216 14.591C35.1879 14.2143 35.1596 13.8376 35.1314 13.4609C35.0862 12.8578 35.0416 12.2546 34.9975 11.6514C34.981 11.4266 34.9643 11.2017 34.9474 10.9769C34.8598 9.80922 34.7915 8.65395 34.8116 7.48288C31.5291 8.56748 28.6502 9.98175 25.8647 12.0377C26.4326 13.0882 27.1094 14.0511 27.7964 15.0268C29.1037 16.8895 29.1037 16.8895 29.6786 17.7375C29.7554 17.8507 29.8321 17.9638 29.9112 18.0804C30.3128 18.7421 30.351 19.4192 30.2568 20.1712C29.9431 21.1825 29.3379 21.8651 28.4674 22.4486C27.6217 22.8809 26.767 22.8626 25.8647 22.6113C25.3111 22.3009 24.866 21.9017 24.4007 21.4726C24.248 21.3334 24.0954 21.1941 23.9381 21.0507C23.6905 20.824 23.4435 20.5969 23.1973 20.3687C21.838 18.9197 21.838 18.9197 20.1712 18.2192C17.9154 22.0218 16.4569 25.8523 16.0192 30.286C15.9974 30.5062 15.9974 30.5062 15.9751 30.7308C15.9641 30.8428 15.9531 30.9548 15.9418 31.0702C16.1439 31.0698 16.346 31.0693 16.5543 31.0688C21.3513 31.0583 26.1483 31.0502 30.9454 31.0453C31.5357 31.0447 32.126 31.044 32.7162 31.0434C32.8925 31.0432 32.8925 31.0432 33.0723 31.043C34.9758 31.0409 36.8792 31.037 38.7826 31.0326C40.7353 31.028 42.6881 31.0253 44.6408 31.0243C45.7378 31.0237 46.8347 31.0222 47.9317 31.0186C48.9637 31.0153 49.9956 31.0143 51.0276 31.015C51.4068 31.0149 51.786 31.0139 52.1652 31.012C52.6822 31.0096 53.199 31.0102 53.7159 31.0115C53.8667 31.0101 54.0175 31.0087 54.1729 31.0072C55.0335 31.0132 55.6443 31.081 56.2842 31.7209C56.3793 32.8811 56.3793 32.8811 56.054 33.3641C55.413 33.8349 54.8183 33.7608 54.0423 33.7512C53.7973 33.752 53.7973 33.752 53.5474 33.7529C52.9986 33.754 52.4499 33.7504 51.9012 33.7468C51.5084 33.7466 51.1157 33.7467 50.7229 33.7471C49.8766 33.7473 49.0302 33.7454 48.1839 33.7417C46.9602 33.7365 45.7365 33.7348 44.5128 33.7339C42.5275 33.7325 40.5421 33.7282 38.5568 33.722C36.6282 33.7161 34.6996 33.7115 32.771 33.7087C32.6521 33.7085 32.5333 33.7084 32.4108 33.7082C31.8144 33.7073 31.2181 33.7065 30.6217 33.7057C25.6742 33.6989 20.7266 33.6874 15.7791 33.673C15.7791 34.3708 15.7791 35.0687 15.7791 35.7877C32.9572 35.7877 50.1353 35.7877 67.8339 35.7877C67.8339 35.0898 67.8339 34.392 67.8339 33.673C67.4768 33.6768 67.4768 33.6768 67.1125 33.6807C66.2297 33.6895 65.3469 33.6951 64.4641 33.6998C64.0819 33.7022 63.6998 33.7055 63.3176 33.7098C62.7685 33.7157 62.2194 33.7185 61.6702 33.7206C61.4992 33.7231 61.3282 33.7256 61.152 33.7282C60.9127 33.7283 60.9127 33.7283 60.6686 33.7284C60.4583 33.73 60.4583 33.73 60.2438 33.7316C59.7745 33.6593 59.5544 33.5101 59.2123 33.1849C59.0481 32.6455 59.0246 32.3089 59.1615 31.7616C59.4146 31.3276 59.5653 31.2529 60.0257 31.0702C60.3942 31.0249 60.3942 31.0249 60.8014 31.0183C61.0309 31.0135 61.0309 31.0135 61.2651 31.0085C61.4289 31.0067 61.5928 31.0048 61.7617 31.0029C62.0148 30.9981 62.0148 30.9981 62.2731 30.9933C62.8118 30.9836 63.3504 30.976 63.8891 30.9685C64.2545 30.9623 64.6199 30.956 64.9852 30.9495C65.8805 30.9339 66.7759 30.92 67.6712 30.9075C67.6207 30.4669 67.5698 30.0264 67.5187 29.5858C67.5046 29.4621 67.4904 29.3384 67.4758 29.2109C67.396 28.5254 67.3007 27.8464 67.1832 27.1661C67.1135 26.4605 67.0606 25.9032 67.4374 25.2852C67.985 24.9623 68.347 24.9732 68.9726 25.0514C69.3113 25.2032 69.3113 25.2032 69.6233 25.5394C69.7987 26.0443 69.8878 26.5591 69.9791 27.0848C70.0192 27.2917 70.0192 27.2917 70.0601 27.5029C70.4201 29.4326 70.4584 31.3406 70.4468 33.2968C70.446 33.5394 70.4452 33.782 70.4446 34.0247C70.4428 34.6123 70.44 35.2 70.4366 35.7877C70.5333 35.7834 70.63 35.7792 70.7296 35.7748C71.1741 35.7577 71.6186 35.7472 72.0633 35.7368C72.2914 35.7266 72.2914 35.7266 72.524 35.7162C73.615 35.6971 74.3096 35.8992 75.1541 36.601C75.964 37.4893 75.8717 38.5635 75.8473 39.6969C75.7936 40.5125 75.7038 41.0354 75.1541 41.6438C73.8531 42.5192 72.2669 42.8586 70.7721 43.2604C70.5127 43.3313 70.2532 43.4022 69.9937 43.4732C64.1426 45.0599 64.1426 45.0599 62.6284 45.0599C62.3666 45.4604 62.299 45.6665 62.3437 46.1491C62.4818 46.7576 62.7061 47.3012 62.9639 47.866C63.4418 48.9245 63.4418 48.9245 63.4418 49.2894C63.5774 49.3034 63.7131 49.3175 63.8529 49.332C65.5032 49.538 66.7476 49.9298 67.7989 51.2694C68.5364 52.3791 68.6727 53.5157 68.6803 54.8221C68.6812 54.9471 68.6821 55.0721 68.6831 55.2008C68.6846 55.4648 68.6857 55.7289 68.6863 55.9929C68.6879 56.392 68.6929 56.791 68.6981 57.1901C68.7124 59.2432 68.5874 60.7431 67.0949 62.2815C66.4133 62.8731 65.7191 63.2385 64.8118 63.3141C64.3465 63.3538 64.0241 63.395 63.6044 63.6045C63.1611 64.2681 62.8941 64.9697 62.6284 65.7192C62.5659 65.8674 62.5034 66.0157 62.439 66.1684C62.2621 66.6421 62.2993 66.8704 62.4657 67.3459C62.6809 67.6184 62.898 67.8894 63.1164 68.1592C63.7517 69.3357 63.9334 70.6152 63.6044 71.921C63.0272 73.5027 61.6921 74.6816 60.5238 75.8455C60.3847 75.9872 60.2456 76.129 60.1022 76.275C58.765 77.6132 57.7513 78.4232 55.8267 78.4482C54.4752 78.4356 53.7108 78.1481 52.7004 77.2511C52.1809 77.0161 51.7884 77.1471 51.2414 77.2688C50.7331 77.4639 50.2419 77.6806 49.7466 77.9059C48.9906 78.2449 48.9906 78.2449 48.6387 78.2449C48.6326 78.3608 48.6265 78.4768 48.6203 78.5963C48.5073 80.2421 48.0586 81.3405 46.8493 82.4743C45.4919 83.5688 43.7789 83.4113 42.1312 83.3937C41.6449 83.3894 41.1592 83.3937 40.6729 83.3989C37.431 83.405 37.431 83.405 36.0956 82.153C34.979 80.9942 34.7309 79.8078 34.649 78.2449C34.5159 78.2033 34.5159 78.2033 34.3802 78.161C33.5782 77.9033 32.8244 77.6048 32.0691 77.2314C31.6415 77.0776 31.3596 77.048 30.9075 77.1062C30.484 77.3448 30.484 77.3448 30.084 77.6654C28.844 78.6111 27.5068 78.5523 25.9829 78.3612C24.9206 78.0586 24.1485 77.1613 23.3819 76.4077C23.0768 76.1081 22.7684 75.812 22.46 75.5157C22.2425 75.3039 22.0252 75.0919 21.8081 74.8796C21.7062 74.7812 21.6042 74.6828 21.4992 74.5814C20.2916 73.3821 19.6254 72.2406 19.4697 70.5282C19.5716 69.366 19.9665 68.4471 20.6592 67.5086C21.0265 67.0679 21.0265 67.0679 20.9528 66.6615C20.7852 66.0799 20.5777 65.5186 20.3542 64.9567C20.3125 64.8467 20.2708 64.7367 20.2278 64.6234C19.9989 64.0454 19.8881 63.7953 19.3579 63.4418C19.0781 63.3889 18.7964 63.3459 18.514 63.3096C17.1373 63.072 16.317 62.421 15.3794 61.4167C14.5203 59.9964 14.564 58.4459 14.5768 56.8396C14.5794 56.4477 14.5768 56.056 14.5737 55.6641C14.5709 53.7509 14.6843 52.0237 16.1044 50.5908C17.2495 49.6926 18.4202 49.4098 19.8459 49.2894C19.8736 49.2007 19.9012 49.112 19.9297 49.0206C20.1485 48.3399 20.3882 47.6967 20.6999 47.0527C20.9091 46.5961 20.9873 46.4039 20.9541 45.8936C20.9105 45.7796 20.8668 45.6655 20.8219 45.548C20.7414 45.3064 20.7414 45.3064 20.6592 45.0599C20.5599 45.0413 20.4605 45.0226 20.3582 45.0033C17.5575 44.4719 14.794 43.8345 12.0377 43.1079C11.8897 43.0692 11.7418 43.0306 11.5894 42.9908C8.6269 42.2081 8.6269 42.2081 7.97087 41.4812C7.53431 40.656 7.40582 39.967 7.42186 39.0309C7.41997 38.9201 7.41808 38.8093 7.41614 38.6951C7.42053 37.9322 7.57209 37.4111 7.97087 36.7637C8.71835 36.0737 9.29656 35.7446 10.3169 35.7559C10.567 35.7575 10.567 35.7575 10.8221 35.7591C11.0816 35.7632 11.0816 35.7632 11.3463 35.7673C11.5218 35.7688 11.6973 35.7703 11.8782 35.7718C12.3109 35.7756 12.7436 35.781 13.1764 35.7877C13.1738 35.6409 13.1738 35.6409 13.1712 35.4912C13.0833 29.6006 13.744 24.1076 16.5924 18.8699C16.6837 18.6971 16.7749 18.5243 16.8689 18.3463C17.2833 17.5696 17.7246 16.8336 18.2192 16.1045C18.0938 15.9942 17.9684 15.8839 17.8392 15.7702C16.2022 14.2749 16.2022 14.2749 16.086 13.069C16.1641 11.4564 17.3263 10.4448 18.4428 9.40443C19.4554 8.53432 20.4018 7.81885 21.7884 7.91498C22.9506 8.10904 23.5374 8.88768 24.238 9.76028C24.3995 9.6462 24.5609 9.53213 24.7273 9.4146C27.3288 7.59062 29.9879 6.03701 33.0686 5.16291C34.1256 4.90688 34.1256 4.90688 34.8618 4.18942C34.9809 3.77312 34.9809 3.77312 35.048 3.3443C35.3141 2.09926 36.5138 1.15091 37.5219 0.467524C38.7331 -0.185445 40.0483 -0.0980995 41.3868 -0.084827ZM38.2277 3.25343C37.2612 4.30053 37.2181 5.14348 37.2517 6.50685C37.2801 7.10487 37.3219 7.70149 37.366 8.29854C37.3782 8.46963 37.3903 8.64072 37.4029 8.81699C37.4429 9.37759 37.4839 9.93812 37.5249 10.4987C37.5533 10.8907 37.5817 11.2828 37.6101 11.6749C37.6696 12.4945 37.7296 13.3141 37.7898 14.1337C37.8669 15.1823 37.9423 16.2311 38.0173 17.2798C38.0754 18.0888 38.1346 18.8976 38.194 19.7064C38.2223 20.093 38.2502 20.4797 38.2777 20.8664C38.3162 21.4072 38.3563 21.9478 38.3967 22.4884C38.4077 22.647 38.4187 22.8056 38.43 22.9689C38.5154 24.5743 38.5154 24.5743 39.2441 25.9414C39.7652 26.2309 40.0802 26.2698 40.6735 26.2651C40.8588 26.2644 41.044 26.2638 41.2349 26.2631C41.4269 26.2592 41.6189 26.2552 41.8167 26.2511C42.0093 26.2509 42.2019 26.2507 42.4003 26.2504C43.553 26.2973 43.553 26.2973 44.5719 25.8647C45.0667 24.926 45.1649 24.0722 45.2348 23.0227C45.2475 22.8551 45.2603 22.6875 45.2735 22.5149C45.315 21.9625 45.3537 21.41 45.3922 20.8575C45.4206 20.4711 45.4491 20.0847 45.4777 19.6983C45.5373 18.8883 45.5955 18.0782 45.6527 17.2681C45.7257 16.2355 45.8012 15.2032 45.8775 14.1709C45.9365 13.3724 45.9944 12.5738 46.0521 11.7752C46.0796 11.3949 46.1073 11.0146 46.1352 10.6343C46.3172 8.19244 46.3172 8.19244 46.4085 5.74592C46.4118 5.56724 46.415 5.38856 46.4183 5.20447C46.3187 4.35446 45.9562 3.73338 45.2938 3.20259C45.1962 3.1227 45.0987 3.04281 44.9983 2.96049C44.5545 2.63223 44.2811 2.58382 43.7382 2.59258C43.4262 2.59761 43.4262 2.59761 43.1079 2.60274C43.1065 2.76194 43.1052 2.92113 43.1039 3.08514C43.0913 4.58588 43.077 6.08659 43.0611 7.5873C43.053 8.35882 43.0454 9.13033 43.0392 9.90186C43.0332 10.6465 43.0257 11.3912 43.0171 12.1358C43.0141 12.4198 43.0116 12.7038 43.0097 12.9878C43.007 13.3858 43.0022 13.7838 42.9971 14.1818C42.9967 14.299 42.9963 14.4162 42.996 14.537C42.9853 15.1804 42.9246 15.6952 42.6198 16.2671C42.1335 16.5103 41.6925 16.4486 41.1558 16.4298C40.9142 16.3493 40.9142 16.3493 40.6678 16.2671C40.6141 11.7579 40.5604 7.24863 40.5051 2.60274C39.1772 2.56951 39.1772 2.56951 38.2277 3.25343ZM62.1404 10.5736C62.0053 10.7506 61.8778 10.9335 61.7534 11.1182C61.6719 11.2384 61.5903 11.3587 61.5063 11.4826C61.417 11.6154 61.3276 11.7483 61.2355 11.8852C61.0434 12.1687 60.851 12.4521 60.6586 12.7354C60.5561 12.8862 60.4537 13.037 60.3481 13.1924C59.9068 13.8383 59.4596 14.4801 59.0118 15.1215C58.6788 15.5986 58.3469 16.0764 58.0151 16.5543C57.6669 17.0561 57.3168 17.5562 56.9629 18.054C56.8429 18.2259 56.723 18.3979 56.5994 18.575C56.5002 18.7149 56.401 18.8548 56.2988 18.9989C56.0908 19.3458 56.0908 19.3458 56.1425 19.722C56.1893 19.8166 56.236 19.9111 56.2842 20.0086C56.4453 20.0622 56.6063 20.1159 56.7722 20.1712C56.9215 20.0318 57.0708 19.8923 57.2247 19.7487C58.4215 18.6327 59.6274 17.5348 60.8727 16.473C62.9433 14.721 62.9433 14.721 64.9058 12.851C64.1514 11.8953 63.3662 11.1759 62.3031 10.5736C62.2494 10.5736 62.1957 10.5736 62.1404 10.5736ZM19.6692 11.868C19.3993 12.1384 19.1325 12.4109 18.8698 12.6884C19.1242 13.3339 19.5728 13.732 20.0797 14.1829C20.2106 14.3012 20.2106 14.3012 20.3441 14.4219C20.8903 14.9115 21.4498 15.3805 22.0216 15.8401C22.8395 16.4978 23.6011 17.2031 24.3644 17.9222C25.211 18.7151 26.0929 19.4521 27.0034 20.1712C27.2181 19.9565 27.4329 19.7418 27.6541 19.5206C26.0874 17.2125 24.5084 14.9134 22.9093 12.6277C22.7011 12.3291 22.494 12.0298 22.2878 11.7298C22.1849 11.5806 22.0819 11.4314 21.9758 11.2777C21.8831 11.1425 21.7903 11.0073 21.6947 10.868C21.6214 10.7709 21.5481 10.6737 21.4726 10.5736C20.8848 10.5736 20.0748 11.4875 19.6692 11.868ZM10.0856 38.3904C10.0856 38.8199 10.0856 39.2493 10.0856 39.6918C11.3216 40.1938 12.6003 40.5313 13.888 40.8712C14.0693 40.9191 14.0693 40.9191 14.2542 40.9679C20.5651 42.6265 27.0101 43.6974 33.5103 44.2466C33.6713 44.2613 33.8324 44.2761 33.9984 44.2913C35.248 44.403 36.4961 44.4602 37.7499 44.5008C38.0624 44.5109 38.0624 44.5109 38.3812 44.5213C40.0123 44.5717 41.6389 44.6027 43.2705 44.5719C43.5244 44.5676 43.5244 44.5676 43.7834 44.5631C52.4152 44.3955 60.8992 43.1368 69.2471 40.9525C69.3809 40.9176 69.5146 40.8827 69.6525 40.8467C70.0334 40.7468 70.414 40.6454 70.7944 40.5433C70.9061 40.5138 71.0179 40.4844 71.133 40.454C71.857 40.2567 72.5202 39.9997 73.202 39.6918C73.202 39.2623 73.202 38.8329 73.202 38.3904C52.3736 38.3904 31.5452 38.3904 10.0856 38.3904ZM23.75 45.7106C23.7317 45.8138 23.7135 45.917 23.6947 46.0233C23.4453 47.2032 23.0357 48.2693 22.5503 49.3707C22.4893 49.5126 22.4283 49.6545 22.3654 49.8008C21.937 50.7475 21.5383 51.335 20.5474 51.7498C20.0085 51.8921 20.0085 51.8921 19.6133 51.955C18.6835 52.1054 18.1665 52.246 17.5685 53.0308C17.1771 53.6292 17.1907 54.2279 17.1885 54.9206C17.1874 55.0401 17.1863 55.1597 17.1852 55.2828C17.1836 55.5352 17.1828 55.7876 17.1828 56.04C17.1821 56.4242 17.1762 56.8081 17.1701 57.1923C17.1691 57.4382 17.1685 57.6841 17.1682 57.93C17.1658 58.0439 17.1635 58.1578 17.1611 58.2752C17.1686 59.0963 17.3866 59.552 17.8938 60.1884C18.3986 60.6754 18.8119 60.7509 19.5002 60.8289C20.4918 60.9761 21.0893 61.2406 21.7808 61.9835C22.2368 62.6256 22.5106 63.3038 22.8045 64.0315C22.8622 64.1711 22.92 64.3108 22.9795 64.4547C23.5028 65.7257 23.8382 66.7427 23.3941 68.0983C23.1698 68.516 22.9544 68.853 22.6723 69.2268C22.2962 69.7385 22.1233 70.1096 22.1233 70.762C22.4261 71.6143 22.7677 72.1382 23.4189 72.7833C23.4961 72.8604 23.5733 72.9374 23.6529 73.0168C23.8149 73.1779 23.9778 73.3382 24.1414 73.4977C24.391 73.7414 24.6379 73.9876 24.8845 74.2343C25.9829 75.3744 25.9829 75.3744 27.4304 75.8963C28.2542 75.8839 28.7818 75.4201 29.4111 74.9311C30.0785 74.4367 30.7611 74.4003 31.569 74.4043C32.4278 74.5373 33.1711 74.8347 33.9678 75.1744C34.1862 75.2667 34.1862 75.2667 34.409 75.3609C35.4388 75.8225 36.4314 76.3361 36.9893 77.3559C37.0958 77.784 37.1647 78.2039 37.2212 78.6414C37.3667 79.5042 37.5965 79.9226 38.2277 80.5223C39.0309 80.9238 40.2717 80.7358 41.165 80.7419C41.456 80.7446 41.7469 80.749 42.0378 80.7552C42.4581 80.7642 42.8781 80.7677 43.2985 80.7701C43.4922 80.7756 43.4922 80.7756 43.6899 80.7813C44.3558 80.7787 44.7713 80.7231 45.2988 80.2981C45.9359 79.6382 46.051 79.0722 46.1579 78.1839C46.3221 77.2656 46.5888 76.7001 47.3373 76.1301C47.9147 75.8056 48.5128 75.5632 49.1267 75.3168C49.2854 75.2407 49.4442 75.1646 49.6077 75.0861C50.7571 74.5483 51.7619 74.3027 53.0308 74.5034C53.6502 74.7307 54.1256 75.1205 54.6473 75.5201C55.2583 75.8692 55.7585 75.9769 56.4469 75.8048C57.3947 75.2189 58.1503 74.4984 58.9382 73.717C59.1712 73.4872 59.4073 73.2611 59.6438 73.0349C60.773 71.921 60.773 71.921 61.1644 70.4367C60.9734 69.8106 60.7501 69.3896 60.3408 68.8811C59.6627 68.0279 59.5927 67.0954 59.7003 66.0445C59.8577 65.4712 60.0771 64.9336 60.3103 64.3873C60.367 64.2469 60.4236 64.1065 60.4819 63.9619C60.9452 62.8405 61.418 61.8466 62.4657 61.1644C63.0498 60.9589 63.567 60.8423 64.1839 60.7882C64.9727 60.6305 65.446 60.2665 65.9057 59.5874C66.1023 59.056 66.0974 58.5384 66.0991 57.979C66.1002 57.8598 66.1013 57.7407 66.1024 57.6179C66.1041 57.3662 66.1048 57.1145 66.1048 56.8628C66.1055 56.4803 66.1114 56.0982 66.1176 55.7159C66.1185 55.4705 66.1192 55.2251 66.1195 54.9797C66.123 54.8101 66.123 54.8101 66.1266 54.6371C66.1184 53.7491 65.8806 53.2589 65.3938 52.5428C64.6898 51.9868 63.9901 51.9445 63.1221 51.847C62.295 51.6501 61.799 51.3051 61.3366 50.5914C61.206 50.3143 61.206 50.3143 61.0729 50.0316C61.0258 49.9323 60.9787 49.833 60.9301 49.7307C60.3265 48.4361 59.7366 47.1332 59.5377 45.7106C57.7861 45.8139 56.0637 46.0882 54.3322 46.3613C54.4328 46.5069 54.4328 46.5069 54.5355 46.6555C57.0998 50.5077 58.2615 54.9568 57.3823 59.5682C57.2938 59.9392 57.1993 60.3088 57.0976 60.6764C57.0523 60.842 57.007 61.0077 56.9603 61.1784C56.305 63.3306 55.2429 65.1201 53.8442 66.8579C53.6529 67.1145 53.6529 67.1145 53.4578 67.3764C50.5742 70.466 46.4988 72.181 42.3256 72.4249C38.3719 72.515 34.2826 71.358 31.2837 68.6879C31.0474 68.46 30.8132 68.2299 30.5822 67.9966C30.4379 67.859 30.2936 67.7215 30.145 67.5797C30.0209 67.4489 29.8967 67.318 29.7688 67.1832C29.6826 67.0924 29.5964 67.0016 29.5077 66.9081C26.455 63.5724 25.5655 59.3482 25.6799 54.9493C25.8315 51.8399 27.2206 48.8959 28.9555 46.3613C28.3016 46.2514 27.6475 46.1435 26.9932 46.036C26.8088 46.0049 26.6244 45.9739 26.4344 45.9419C25.529 45.7941 24.6677 45.668 23.75 45.7106ZM30.8915 47.9981C30.7894 48.1558 30.6873 48.3135 30.5822 48.476C30.5007 48.5915 30.4191 48.707 30.3351 48.826C30.1379 49.1193 29.966 49.4151 29.7993 49.7266C29.7101 49.889 29.7101 49.889 29.6192 50.0547C27.9717 53.1775 27.6192 56.9671 28.6301 60.351C29.2106 62.0123 30.0203 63.4914 31.0702 64.9058C31.1787 65.0593 31.1787 65.0593 31.2894 65.2159C33.3354 67.8688 36.723 69.3503 39.9408 69.8806C43.4245 70.3004 46.7796 69.3865 49.6147 67.3459C49.7533 67.2473 49.8919 67.1488 50.0347 67.0472C52.7123 65.0319 54.5977 61.7393 55.0991 58.4238C55.4354 54.7061 54.7025 51.4012 52.5428 48.3134C52.4529 48.167 52.3631 48.0207 52.2705 47.87C51.8644 47.3025 51.4819 46.7799 50.7699 46.6152C49.9942 46.5495 49.2256 46.6235 48.4532 46.7031C47.858 46.7641 47.2619 46.8054 46.6652 46.8481C46.3588 46.8701 46.0524 46.8932 45.7462 46.9171C44.3164 47.0277 42.8943 47.0567 41.4608 47.0527C41.2857 47.0532 41.2857 47.0532 41.107 47.0539C39.6753 47.0582 38.2614 46.9976 36.8348 46.8754C36.5453 46.8527 36.2558 46.83 35.9663 46.8075C35.4123 46.7642 34.8616 46.7085 34.3096 46.6452C32.7418 46.4978 31.887 46.6625 30.8915 47.9981Z" fill="#EDF7FF"/>
<path d="M42.7826 18.3818C43.3097 19.1725 43.1679 20.045 43.1689 20.9744C43.1729 21.1685 43.1769 21.3625 43.181 21.5625C43.1819 21.8423 43.1819 21.8423 43.1829 22.1277C43.1842 22.2984 43.1856 22.4691 43.1869 22.6449C43.0884 23.2114 42.9022 23.3977 42.4572 23.75C41.9668 23.926 41.7124 23.9302 41.2067 23.8008C40.7598 23.5472 40.6875 23.4094 40.5052 22.9366C40.4631 22.5147 40.4631 22.5147 40.462 22.0419C40.4615 21.8708 40.4611 21.6997 40.4607 21.5234C40.462 21.3456 40.4632 21.1678 40.4645 20.9846C40.4626 20.7178 40.4626 20.7178 40.4607 20.4457C40.4611 20.2746 40.4615 20.1035 40.462 19.9272C40.4623 19.7712 40.4627 19.6152 40.4631 19.4544C40.507 19.0144 40.5925 18.752 40.8305 18.3818C41.5372 17.9376 42.0314 18.0842 42.7826 18.3818Z" fill="#EDF7FF"/>
</g>
<defs>
<clipPath id="clip0_87_286">
<rect width="83.2877" height="83.2877" fill="white"/>
</clipPath>
</defs>
</svg>
