<svg width="85" height="85" viewBox="0 0 85 85" fill="none" xmlns="http://www.w3.org/2000/svg">
<g clip-path="url(#clip0_87_236)">
<path d="M71.2353 9.28822C75.356 12.6981 77.9999 17.141 78.7671 22.4815C78.8999 25.3666 78.9611 28.3594 78.2748 31.1787C78.2259 31.3835 78.2259 31.3835 78.176 31.5924C77.66 33.6905 76.9315 35.6422 75.9774 37.5785C75.8981 37.7415 75.8981 37.7415 75.8172 37.9078C74.3658 40.8593 72.2978 43.2912 70.0975 45.7097C69.73 46.1248 69.3814 46.5512 69.034 46.9834C68.236 47.9701 67.3747 48.8912 66.5102 49.819C66.0423 50.3227 65.5898 50.8369 65.147 51.3627C65.0715 51.4521 64.996 51.5415 64.9183 51.6336C62.9624 53.9612 61.3414 56.3151 60.0599 59.0753C59.9724 59.2585 59.8848 59.4417 59.7945 59.6305C58.2262 63.0678 57.6284 66.6916 57.5007 70.4395C57.3927 73.1848 56.5973 75.0324 54.6447 76.962C52.7793 78.6568 50.6914 78.8657 48.2833 78.7895C47.5573 78.7452 46.9345 78.5751 46.2757 78.2748C46.1543 78.2209 46.0328 78.1669 45.9077 78.1114C43.9455 77.1303 42.4294 75.4549 41.7014 73.3827C41.381 72.274 41.0709 71.0001 41.5784 69.9161C41.845 69.5776 41.845 69.5776 42.1732 69.4135C42.763 69.348 43.0704 69.3618 43.586 69.6667C44.0871 70.1817 44.1365 70.6367 44.2142 71.3212C44.451 72.8829 45.0132 74.124 46.2898 75.1166C47.7204 76.048 49.0885 76.292 50.7499 75.9409C52.1558 75.5412 53.1696 74.72 53.9883 73.516C54.704 72.2045 54.7072 70.8181 54.7513 69.3628C54.9983 61.6259 58.3174 54.7981 63.4669 49.1506C63.8389 48.7319 64.1912 48.302 64.5419 47.8654C65.1801 47.0757 65.8571 46.3338 66.5506 45.5932C67.1983 44.8976 67.8007 44.1735 68.395 43.4315C68.77 42.9781 69.1647 42.5509 69.5674 42.122C71.733 39.7552 73.349 36.9549 74.5006 33.9683C74.6091 33.6894 74.6091 33.6894 74.7198 33.4049C76.2235 29.2447 76.7387 24.1087 75.3211 19.8559C75.2868 19.7505 75.2525 19.645 75.2171 19.5364C73.7611 15.2032 70.6683 11.7156 66.5977 9.66193C62.6655 7.78399 57.8275 7.26711 53.6601 8.69721C52.0168 9.29297 49.9836 10.0763 48.7372 11.3228C48.8958 11.2674 49.0545 11.2119 49.2179 11.1548C49.4337 11.0809 49.6495 11.0069 49.8653 10.933C50.0208 10.8785 50.0208 10.8785 50.1794 10.8228C51.8185 10.2655 53.367 10.1147 55.096 10.1228C55.3004 10.1237 55.5047 10.1247 55.7153 10.1256C57.122 10.1442 58.3878 10.224 59.7317 10.6664C59.8347 10.699 59.9376 10.7316 60.0437 10.7652C64.0577 12.0574 67.4146 14.8153 69.4135 18.5431C70.5617 20.8571 71.3616 23.4833 71.2186 26.0916C70.8596 26.8454 70.8596 26.8454 70.3981 27.0762C69.3884 27.1697 69.3884 27.1697 68.8988 26.8403C68.4525 26.2266 68.4351 25.6335 68.3571 24.8916C67.8947 21.3061 66.3935 18.1098 63.5989 15.738C60.5656 13.485 56.9225 12.4361 53.1656 12.9472C49.6037 13.5139 46.6231 15.3834 44.4501 18.2399C42.4724 21.2435 41.4909 24.8548 42.1155 28.4396C42.6674 31.0554 43.9381 33.3421 46.1116 34.9529C46.604 35.117 46.9601 35.1495 47.4756 35.158C47.6273 35.1623 47.779 35.1665 47.9353 35.1709C48.9497 35.0555 49.6134 34.4708 50.3576 33.8145C52.1654 32.2625 53.9171 31.8424 56.2857 31.9991C58.2014 32.3123 59.7522 33.4 60.8804 34.9529C61.9314 36.6056 62.2593 38.4465 61.865 40.3682C61.4227 41.9815 60.5584 43.3369 59.6907 44.7475C58.3337 46.9624 56.9683 49.2021 56.1728 51.6909C56.1263 51.832 56.0798 51.973 56.0319 52.1184C55.6222 53.4119 55.3458 54.7287 55.1141 56.0648C54.776 57.9063 53.9885 59.5128 52.4762 60.665C50.6622 61.8411 48.6287 62.3275 46.4911 61.9515C44.7302 61.4921 43.602 60.5478 42.436 59.1894C41.8738 58.6069 41.2561 58.2192 40.5572 57.8183C40.204 57.5985 40.204 57.5985 40.0399 57.2703C39.9969 56.6889 39.9725 56.2639 40.2246 55.7318C40.6802 55.3369 40.9076 55.29 41.5168 55.3011C42.9234 55.7795 44.077 56.7332 44.9937 57.8856C45.6536 58.7049 46.5529 59.1479 47.5872 59.2817C48.8366 59.3484 49.9377 58.9247 51.014 58.3164C52.0097 57.2036 52.3319 55.8319 52.5832 54.3985C53.3795 50.2888 55.0613 46.8337 57.2656 43.3005C58.8733 40.9119 58.8733 40.9119 59.1721 38.1522C58.8599 36.9275 58.273 35.8711 57.1677 35.2093C56.0756 34.7037 54.8944 34.5594 53.7274 34.9202C52.933 35.2854 52.342 35.7453 51.7114 36.3477C50.3935 37.5736 49.0281 38.0289 47.2383 37.992C45.1857 37.8814 43.7573 36.9655 42.4027 35.4644C39.5298 32.0202 38.7334 27.4567 39.0866 23.0787C39.6228 17.8459 42.1841 12.9917 46.2243 9.61449C47.7129 8.41414 49.2904 7.50331 51.0345 6.72803C51.2095 6.64892 51.3844 6.5698 51.5646 6.48829C57.9482 3.81838 65.8253 5.03856 71.2353 9.28822Z" fill="#EDF7FF"/>
<path d="M64.6547 0.492269C64.8473 0.541173 64.8473 0.541173 65.0439 0.591065C67.8997 1.33354 70.5787 2.44124 73.0237 4.10243C73.1371 4.17647 73.2505 4.2505 73.3673 4.32678C73.8626 4.68423 74.0054 4.91274 74.1724 5.50752C74.1724 6.30603 74.1724 6.30603 73.8442 6.728C73.4455 7.02701 73.2415 7.06021 72.7423 7.02286C72.1052 6.86831 71.6275 6.57768 71.0853 6.22545C67.376 3.92776 63.382 2.71466 59.0036 2.72811C58.8312 2.72832 58.8312 2.72832 58.6554 2.72854C52.7313 2.75288 47.615 4.98093 43.3219 9.02537C43.213 9.12374 43.1041 9.2221 42.9918 9.32344C39.0356 13.0389 36.7633 18.7558 36.558 24.1109C36.4714 27.6166 37.2875 30.7788 38.2349 34.1324C38.4133 34.7679 38.5912 35.4035 38.7681 36.0395C38.8813 36.4456 38.9953 36.8516 39.1103 37.2572C40.0013 40.4426 40.6405 43.7792 38.9938 46.8192C38.0784 48.3332 36.7731 49.1821 35.2504 50.0397C34.1372 50.7012 33.2478 51.5861 32.8908 52.8588C32.6278 54.6072 32.5187 56.6565 33.585 58.1433C34.2278 58.9192 34.9182 59.4746 35.7683 60.0073C37.1716 60.9195 38.229 62.5621 38.6508 64.168C38.7589 64.8567 38.7561 65.5373 38.7618 66.2335C38.7664 66.5494 38.7711 66.8653 38.7759 67.1812C38.7826 67.6747 38.7887 68.1683 38.793 68.6619C38.8095 70.3797 38.8331 72.016 39.2635 73.6878C39.6135 75.0998 39.6135 75.0998 39.4349 75.7005C39.1586 76.0557 38.9976 76.1764 38.5631 76.3056C37.5706 76.2534 37.5706 76.2534 37.1548 75.9556C36.8228 75.5185 36.7183 75.0795 36.5734 74.5518C36.4915 74.2615 36.4915 74.2615 36.408 73.9653C36.1332 72.7808 36.0786 71.635 36.0728 70.425C36.069 70.1152 36.065 69.8054 36.0609 69.4955C36.0552 69.0134 36.0503 68.5314 36.0481 68.0493C36.0456 67.5796 36.039 67.1101 36.0317 66.6405C36.0321 66.4987 36.0324 66.357 36.0327 66.2109C36.0067 64.8975 35.6664 63.7038 34.7581 62.7265C34.334 62.3378 33.8876 62.022 33.4042 61.7111C31.6471 60.5726 30.5719 59.0379 30.0915 56.9822C29.9726 56.2706 29.9744 55.5594 29.9787 54.8395C29.9796 54.6793 29.9805 54.5192 29.9815 54.3541C30.0135 52.4612 30.4415 51.1257 31.5069 49.5576C31.6016 49.4121 31.6964 49.2665 31.794 49.1166C32.6139 48.274 33.6365 47.6789 34.6555 47.1064C35.8438 46.4039 36.6601 45.4681 37.0862 44.1424C37.5838 41.035 36.3737 37.7774 35.5253 34.8202C33.2854 26.9996 33.1181 19.7147 37.1465 12.3971C38.1958 10.5516 39.4902 8.97349 40.9649 7.45322C41.1598 7.25037 41.3494 7.04247 41.538 6.83377C47.0599 0.901186 56.8858 -1.54659 64.6547 0.492269Z" fill="#EDF7FF"/>
<path d="M76.962 7.54857C77.6494 8.01694 78.1497 8.60869 78.6543 9.26135C78.7329 9.3627 78.8116 9.46405 78.8926 9.56847C79.6397 10.5466 80.2978 11.5619 80.9004 12.6356C80.9547 12.7323 81.009 12.8291 81.065 12.9287C82.8223 16.1087 84.0187 19.8361 84.0573 23.4853C84.059 23.611 84.0606 23.7367 84.0622 23.8661C84.1624 33.7023 80.7752 41.7647 74.1999 48.9917C73.8324 49.4069 73.4838 49.8332 73.1365 50.2654C72.5766 50.9581 71.991 51.6156 71.3827 52.2653C70.6404 53.0582 69.9406 53.8732 69.2616 54.7217C68.9455 55.1074 68.6154 55.4703 68.2751 55.8345C64.9436 59.5633 62.966 64.7605 62.802 69.7336C62.6595 73.8933 61.6906 77.5805 58.583 80.5723C57.1855 81.8061 55.7276 82.6926 53.9883 83.3619C53.8057 83.4332 53.6232 83.5045 53.4351 83.5779C50.0397 84.6841 46.2697 84.193 43.1354 82.5992C41.743 81.8491 40.2911 80.9024 39.3835 79.5877C39.293 78.9429 39.2862 78.5971 39.6297 78.039C40.0847 77.7546 40.4432 77.6398 40.9835 77.6666C41.6373 77.872 42.048 78.3771 42.5309 78.846C44.432 80.5443 47.0232 81.4181 49.5576 81.3927C51.9948 81.2457 54.5529 80.5201 56.3158 78.7319C56.6138 78.439 56.6138 78.439 56.942 78.439C57.0068 78.2965 57.0068 78.2965 57.0728 78.1512C57.2802 77.764 57.519 77.4703 57.8036 77.1365C59.531 74.9304 59.89 72.4103 59.994 69.7017C60.3098 62.2177 63.8243 56.5065 68.7353 51.1025C69.1006 50.6891 69.4473 50.2645 69.793 49.8346C70.3528 49.1419 70.9385 48.4844 71.5468 47.8347C72.2832 47.0471 72.9835 46.2412 73.6576 45.3988C73.8887 45.1115 74.1242 44.8276 74.364 44.5476C76.1105 42.495 77.5004 40.1973 78.603 37.7426C78.6582 37.6203 78.7134 37.4979 78.7702 37.3719C80.4551 33.5692 81.3018 29.579 81.2901 25.425C81.2899 25.2364 81.2899 25.2364 81.2897 25.044C81.2688 19.49 79.4259 14.1112 75.5467 10.0408C75.174 9.54066 75.0886 9.41367 75.0544 8.83059C75.1569 8.20496 75.1569 8.20496 75.4133 7.79472C75.9715 7.45124 76.3172 7.45808 76.962 7.54857Z" fill="#EDF7FF"/>
<path d="M18.5431 24.6147C22.8926 28.6794 24.8446 35.441 25.107 41.1887C25.2729 47.5663 23.2094 54.2956 18.8713 59.0754C18.1137 59.7276 17.5159 60.0183 16.5123 60.1112C15.4581 60.0203 14.5328 59.6807 13.7842 58.9113C13.1476 58.0493 13.0046 57.1824 13.0445 56.1235C13.2145 55.115 13.8031 54.3865 14.4182 53.5947C17.4766 49.6108 18.6367 44.4174 18.0485 39.482C17.5582 35.7894 16.0076 32.4841 13.8009 29.5255C13.0568 28.4897 13.0025 27.6863 13.1278 26.4198C13.3878 25.3696 14.0044 24.8687 14.897 24.3077C16.0384 23.7269 17.5019 23.8905 18.5431 24.6147ZM15.9688 26.7788C15.7159 27.0629 15.7159 27.0629 15.7701 27.43C15.9754 28.08 16.3472 28.5514 16.7482 29.0967C17.6635 30.3852 18.3872 31.7085 19.0354 33.1478C19.1126 33.315 19.1898 33.4821 19.2693 33.6542C20.2236 35.9054 20.7888 38.5797 20.8404 41.0246C20.8468 41.1733 20.8531 41.322 20.8597 41.4752C20.9842 46.5759 19.3673 51.7425 16.1431 55.7113C15.7799 56.1744 15.7515 56.2339 15.7739 56.86C15.8213 56.9954 15.8687 57.1308 15.9175 57.2703C16.2023 57.4138 16.2023 57.4138 16.5739 57.4344C17.2754 56.9663 17.7211 56.3786 18.1738 55.6806C18.2444 55.5723 18.3149 55.4639 18.3875 55.3523C20.826 51.5443 22.2686 47.3643 22.4814 42.8296C22.4882 42.7057 22.495 42.5817 22.5019 42.454C22.6518 37.0015 20.6837 31.2871 17.2303 27.0762C16.6458 26.5398 16.6458 26.5398 15.9688 26.7788Z" fill="#EDF7FF"/>
<path d="M12.174 29.5377C14.3303 31.6508 16.3349 35.4163 16.4713 38.481C16.4628 39.0544 16.4406 39.1803 16.0713 39.6502C15.4435 39.9441 15.1025 39.8956 14.4406 39.7118C14.0258 39.3765 13.8698 39.0914 13.731 38.5817C13.695 38.456 13.6589 38.3304 13.6218 38.2009C13.584 38.0666 13.5462 37.9323 13.5073 37.7939C12.8488 35.5969 11.899 33.3909 10.3382 31.6709C10.1757 31.6168 10.0132 31.5626 9.84586 31.5069C9.68341 31.6152 9.52095 31.7235 9.35357 31.835C9.4434 32.4904 9.62814 32.8632 10.0305 33.3837C12.3644 36.6359 13.1753 40.5162 12.5887 44.4559C12.1653 46.9937 11.151 49.3471 9.54267 51.3602C9.3199 51.6799 9.3199 51.6799 9.37472 52.0525C9.42189 52.1498 9.46907 52.2471 9.51767 52.3473C9.68012 52.4015 9.84258 52.4556 10.01 52.5114C11.4912 51.5643 12.3314 49.4986 12.9637 47.9167C13.0491 47.7044 13.0491 47.7044 13.1362 47.4878C13.5916 46.2446 13.8196 44.9753 14.0189 43.6701C14.043 43.5262 14.0671 43.3823 14.0919 43.2341C14.1118 43.1048 14.1317 42.9756 14.1522 42.8424C14.3159 42.3934 14.5261 42.2494 14.9329 42.0091C15.5265 41.9207 15.843 41.9751 16.3893 42.2245C16.9505 42.9343 16.8334 43.5989 16.738 44.4706C16.2362 47.9296 14.9156 51.5745 12.4714 54.1524C12.3934 54.2408 12.3153 54.3292 12.2349 54.4203C11.5345 55.1187 10.6346 55.2693 9.68177 55.3011C8.62445 55.1536 7.73865 54.6435 7.05619 53.8242C6.44164 52.7679 6.42463 51.7296 6.728 50.573C6.9629 50.0001 7.29441 49.5543 7.67156 49.0654C8.76145 47.6216 9.62538 45.7863 9.84586 43.9783C9.86744 43.823 9.88902 43.6678 9.91125 43.5078C10.2702 40.2458 9.36295 37.0087 7.34337 34.4093C6.64797 33.5119 6.43361 32.641 6.5639 31.5069C6.75481 30.5183 7.2204 29.9016 8.00232 29.2781C9.32216 28.4405 10.966 28.5512 12.174 29.5377Z" fill="#EDF7FF"/>
<path d="M5.74343 34.6247C7.65903 36.5781 8.4051 39.3557 8.43054 42.0092C8.40218 44.7091 7.62514 47.5053 5.68446 49.4897C4.88235 50.1811 3.99542 50.4057 2.95376 50.3782C1.75016 50.1557 0.92019 49.6359 0.184606 48.6551C-0.173835 47.54 -0.225003 46.2698 0.297423 45.1988C0.489111 44.8744 0.693811 44.5858 0.923048 44.286C1.62164 43.3334 1.59627 42.1559 1.47688 41.0246C1.20522 40.1046 0.704266 39.3454 0.164094 38.5631C-0.160233 37.5901 -0.206878 36.451 0.179478 35.492C0.783402 34.5267 1.44603 34.0394 2.523 33.6709C3.78912 33.5805 4.76118 33.793 5.74343 34.6247ZM2.62557 36.5939C2.66034 37.3936 2.84075 37.8744 3.2717 38.5528C4.26384 40.1445 4.31855 41.9708 4.02617 43.7989C3.78335 44.7069 3.3499 45.4478 2.82364 46.2225C2.59741 46.6581 2.58702 46.9404 2.62557 47.4244C2.89633 47.5327 3.16709 47.641 3.44606 47.7526C4.0983 47.1576 4.4799 46.6086 4.87166 45.8039C4.96706 45.6114 5.06246 45.4189 5.16076 45.2206C6.01021 43.2649 6.06853 40.9858 5.28447 38.9926C4.7995 37.9376 4.33494 37.0311 3.44606 36.2657C3.14404 36.2657 2.88873 36.4581 2.62557 36.5939Z" fill="#EDF7FF"/>
<path d="M29.1889 61.3009C29.7186 61.3183 29.8445 61.3566 30.2863 61.6906C30.627 62.4164 30.5828 62.9245 30.3581 63.6701C29.3458 66.2737 27.5968 68.4866 25.0352 69.7109C24.7329 69.8355 24.4286 69.9554 24.1224 70.0699C23.9187 70.1486 23.9187 70.1486 23.7109 70.2289C22.737 70.5505 21.7865 70.6164 20.7686 70.634C20.6403 70.6376 20.512 70.6413 20.3798 70.6451C19.792 70.6427 19.4351 70.6139 18.9527 70.2654C18.5924 69.7377 18.6181 69.3806 18.7071 68.7571C19.0712 68.2801 19.2847 68.127 19.8558 67.9366C20.1804 67.9156 20.5052 67.8991 20.8302 67.8853C22.9814 67.7252 24.7235 66.9318 26.2146 65.3623C26.8803 64.5569 27.2954 63.6275 27.7325 62.6855C28.3478 61.3959 28.3478 61.3959 29.1889 61.3009Z" fill="#EDF7FF"/>
<path d="M24.7788 13.456C26.1401 13.8798 27.266 14.5608 28.389 15.4252C28.5582 15.547 28.7274 15.6689 28.9018 15.7944C30.9662 17.7691 31.9975 20.2991 32.0607 23.107C32.065 23.2288 32.0693 23.3506 32.0737 23.4761C32.0754 24.0483 32.0446 24.3868 31.7088 24.8583C31.1085 25.2661 30.745 25.1864 30.0299 25.107C29.5911 24.8097 29.5443 24.6348 29.3736 24.1224C29.3525 23.7978 29.3361 23.473 29.3223 23.1481C29.1653 21.01 28.3722 19.1534 26.748 17.7226C26.6596 17.6437 26.5711 17.5648 26.48 17.4835C25.6518 16.7991 24.7863 16.4623 23.7705 16.1265C23.2632 15.9002 23.0751 15.7429 22.8096 15.2611C22.73 14.6243 22.7163 14.264 23.0558 13.7124C23.6451 13.3441 24.1154 13.3328 24.7788 13.456Z" fill="#EDF7FF"/>
<path d="M25.4353 60.224C25.934 60.4603 26.0555 60.6237 26.2558 61.1368C26.2558 62.461 25.5216 63.7197 24.6148 64.6547C23.2104 65.8037 21.9736 66.181 20.1764 66.213C19.5818 66.1131 19.3909 65.9556 19.0354 65.4752C18.9067 65.0206 18.9324 64.6219 19.0354 64.1624C19.4018 63.6653 19.7137 63.5335 20.3143 63.4176C20.6509 63.3682 20.9886 63.3256 21.327 63.2906C22.1855 63.0962 22.6725 62.7358 23.1456 61.9964C23.2378 61.8075 23.33 61.6186 23.4251 61.424C23.9735 60.3135 24.1678 60.1366 25.4353 60.224Z" fill="#EDF7FF"/>
<path d="M23.466 17.7227C25.3027 18.4289 26.4083 19.3461 27.2492 21.1142C27.6441 22.0885 27.6934 23.0812 27.5684 24.1225C27.2197 24.6558 27.2197 24.6558 26.7479 24.943C26.1086 25.0762 25.8622 25.0059 25.3121 24.6558C24.8467 23.9836 24.8054 23.4241 24.6986 22.6257C24.5465 21.77 24.1631 21.3246 23.4865 20.8097C23.1438 20.611 22.7947 20.4228 22.4404 20.2457C21.9891 20.02 21.9891 20.02 21.6609 19.6918C21.5509 18.5551 21.5509 18.5551 21.9173 17.9688C22.4669 17.6306 22.851 17.5788 23.466 17.7227Z" fill="#EDF7FF"/>
</g>
<defs>
<clipPath id="clip0_87_236">
<rect width="84.0183" height="84.0183" fill="white"/>
</clipPath>
</defs>
</svg>
