<svg width="84" height="84" viewBox="0 0 84 84" fill="none" xmlns="http://www.w3.org/2000/svg">
<g clip-path="url(#clip0_87_295)">
<path d="M14.3983 24.8071C14.6247 24.8058 14.6247 24.8058 14.8557 24.8045C15.3518 24.8024 15.8478 24.8051 16.344 24.808C16.6902 24.808 17.0363 24.8078 17.3825 24.8073C18.1068 24.8071 18.8311 24.8091 19.5554 24.8129C20.4829 24.8175 21.4104 24.817 22.3379 24.815C23.0523 24.8138 23.7666 24.8151 24.481 24.8171C24.823 24.8178 25.165 24.8179 25.507 24.8173C25.9851 24.8168 26.4631 24.8195 26.9412 24.823C27.1523 24.8219 27.1523 24.8219 27.3676 24.8208C28.3784 24.8332 29.0809 25.0141 29.8197 25.7529C30.482 26.8077 30.2871 28.1946 30.287 29.4012C30.2873 29.7571 30.2903 30.1129 30.2934 30.4688C30.2939 30.6979 30.2942 30.927 30.2943 31.156C30.295 31.3619 30.2957 31.5678 30.2964 31.78C30.2485 32.496 30.1603 33.2111 29.7148 33.7937C29.1514 34.2249 28.8652 34.3417 28.1421 34.4864C28.1421 37.0631 28.1421 39.6398 28.1421 42.2946C28.5179 42.4019 28.8937 42.5093 29.2808 42.6199C29.913 43.1032 30.1009 43.6295 30.2568 44.4093C30.9547 44.463 31.6526 44.5167 32.3716 44.572C32.3783 44.374 32.385 44.1761 32.3919 43.9721C32.4595 43.4277 32.566 43.1551 32.9816 42.7928C33.5103 42.4572 33.5103 42.4572 34.3236 42.2946C34.3236 39.7179 34.3236 37.1411 34.3236 34.4864C34.0552 34.4327 33.7868 34.379 33.5103 34.3237C32.9525 33.9475 32.6268 33.642 32.3716 33.0223C32.3281 32.6974 32.3281 32.6974 32.3243 32.3517C32.3222 32.2214 32.3202 32.091 32.318 31.9568C32.3177 31.8173 32.3173 31.6778 32.3169 31.5341C32.3153 31.3169 32.3153 31.3169 32.3136 31.0953C32.312 30.7893 32.3112 30.4833 32.3113 30.1773C32.3106 29.7106 32.3047 29.2442 32.2985 28.7776C32.2975 28.4798 32.2969 28.182 32.2966 27.8842C32.2943 27.7454 32.2919 27.6066 32.2895 27.4636C32.2962 26.586 32.4109 26.054 33.0223 25.3768C33.862 24.8392 34.5633 24.8188 35.5271 24.8256C35.678 24.8247 35.8289 24.8239 35.9844 24.823C36.4814 24.8209 36.9784 24.8223 37.4754 24.8239C37.8218 24.8236 38.1682 24.8231 38.5146 24.8225C39.2398 24.8218 39.9651 24.8228 40.6904 24.8251C41.6192 24.8279 42.5479 24.8263 43.4767 24.8234C44.1918 24.8216 44.9069 24.8222 45.6219 24.8234C45.9644 24.8238 46.3068 24.8234 46.6493 24.8222C47.1282 24.821 47.607 24.8229 48.0859 24.8256C48.2269 24.8246 48.3678 24.8236 48.5131 24.8226C49.3264 24.8311 49.8864 24.9258 50.5908 25.3768C51.3078 26.1739 51.3376 26.8525 51.3279 27.8727C51.3285 28.0171 51.3291 28.1614 51.3297 28.3101C51.3302 28.6142 51.329 28.9183 51.3263 29.2223C51.3228 29.6862 51.3262 30.1496 51.3304 30.6134C51.33 30.9097 51.3291 31.206 51.3279 31.5023C51.3292 31.6401 51.3305 31.7779 51.3319 31.9199C51.318 32.7972 51.1745 33.3031 50.5908 33.9983C50.1045 34.3541 49.8946 34.4864 49.2894 34.4864C49.2894 37.0631 49.2894 39.6398 49.2894 42.2946C49.6652 42.4019 50.0409 42.5093 50.4281 42.6199C50.8287 42.9122 50.9654 43.161 51.2414 43.5959C51.2414 43.918 51.2414 44.2401 51.2414 44.572C51.993 44.572 52.7445 44.572 53.5188 44.572C53.5188 44.2499 53.5188 43.9278 53.5188 43.5959C54.1269 42.6378 54.2626 42.6398 55.4709 42.2946C55.4709 39.7179 55.4709 37.1411 55.4709 34.4864C55.2025 34.4327 54.9341 34.379 54.6575 34.3237C54.0998 33.9475 53.7741 33.642 53.5188 33.0223C53.4753 32.6974 53.4753 32.6974 53.4716 32.3517C53.4695 32.2214 53.4674 32.091 53.4653 31.9568C53.4647 31.7475 53.4647 31.7475 53.4642 31.5341C53.4631 31.3893 53.462 31.2445 53.4609 31.0953C53.4593 30.7893 53.4585 30.4833 53.4585 30.1773C53.4578 29.7106 53.4519 29.2442 53.4458 28.7776C53.4448 28.4798 53.4442 28.182 53.4439 27.8842C53.4415 27.7454 53.4392 27.6066 53.4368 27.4636C53.4435 26.586 53.5582 26.054 54.1695 25.3768C55.0083 24.8404 55.7092 24.818 56.6718 24.823C56.8225 24.8219 56.9731 24.8208 57.1283 24.8196C57.6245 24.8167 58.1207 24.8173 58.6169 24.8182C58.9629 24.8175 59.3089 24.8166 59.6549 24.8156C60.3795 24.8142 61.1041 24.8146 61.8287 24.8162C62.7561 24.8181 63.6833 24.8148 64.6106 24.81C65.325 24.807 66.0394 24.8071 66.7538 24.808C67.0956 24.808 67.4375 24.8071 67.7793 24.805C68.2578 24.8026 68.7362 24.8043 69.2147 24.8071C69.4253 24.8048 69.4253 24.8048 69.6401 24.8024C70.5802 24.8138 71.126 25.0005 71.9007 25.5394C72.5126 26.2351 72.4623 26.975 72.4592 27.8569C72.4601 28.0014 72.4609 28.146 72.4618 28.295C72.4629 28.6 72.4626 28.905 72.4613 29.2101C72.4599 29.6753 72.4646 30.1402 72.4697 30.6054C72.47 30.9025 72.4699 31.1996 72.4694 31.4966C72.4712 31.6349 72.4731 31.7732 72.4749 31.9157C72.4647 32.7957 72.3245 33.3012 71.738 33.9983C71.2518 34.3541 71.0419 34.4864 70.4366 34.4864C70.4366 37.0631 70.4366 39.6398 70.4366 42.2946C70.8124 42.4019 71.1882 42.5093 71.5753 42.6199C71.9967 42.9082 72.1875 43.1003 72.301 43.6023C72.3431 43.9241 72.3671 44.2481 72.3887 44.572C72.9792 44.572 73.5697 44.572 74.1781 44.572C74.1814 44.3774 74.1848 44.1828 74.1883 43.9823C74.26 43.37 74.4326 43.1099 74.8999 42.7114C75.7752 42.0408 76.4742 42.0968 77.5535 42.0912C77.7146 42.0879 77.8756 42.0845 78.0415 42.0811C78.9369 42.0763 79.5919 42.104 80.3596 42.6199C80.9993 43.3114 81.1923 43.8166 81.198 44.7464C81.1994 44.917 81.2008 45.0876 81.2022 45.2634C81.2033 45.544 81.2033 45.544 81.2043 45.8304C81.2057 46.0275 81.207 46.2246 81.2084 46.4276C81.2124 47.0812 81.2151 47.7348 81.2174 48.3884C81.2183 48.6135 81.2192 48.8386 81.2201 49.0638C81.2236 50.0001 81.2266 50.9365 81.2285 51.8729C81.2311 53.2144 81.2365 54.5558 81.2458 55.8973C81.2521 56.8409 81.2552 57.7844 81.2561 58.728C81.2567 59.2915 81.2586 59.8549 81.2639 60.4184C81.2697 61.0469 81.2691 61.6754 81.2679 62.304C81.2705 62.4905 81.2732 62.6769 81.276 62.869C81.266 64.128 81.266 64.128 80.7908 64.7775C80.3596 65.0685 80.3596 65.0685 79.8716 65.1702C79.1842 65.027 78.9884 64.8224 78.5702 64.2552C78.4514 63.6274 78.4675 63.0081 78.4779 62.3709C78.4778 62.1804 78.4776 61.9899 78.4775 61.7936C78.4781 61.1642 78.4844 60.535 78.4908 59.9056C78.4923 59.4691 78.4935 59.0327 78.4943 58.5962C78.4968 57.5649 78.5035 56.5337 78.5116 55.5025C78.5207 54.3282 78.5252 53.1539 78.5293 51.9796C78.5378 49.5646 78.5522 47.1496 78.5702 44.7346C77.9797 44.7346 77.3892 44.7346 76.7808 44.7346C76.7808 54.5584 76.7808 64.3821 76.7808 74.5035C77.3713 74.5035 77.9618 74.5035 78.5702 74.5035C78.5659 74.3402 78.5617 74.1769 78.5573 74.0087C78.5425 73.4009 78.5332 72.7931 78.5255 72.1851C78.5214 71.9224 78.5159 71.6597 78.5089 71.397C78.4989 71.0186 78.4944 70.6405 78.4908 70.262C78.4866 70.1452 78.4824 70.0284 78.4781 69.9081C78.4777 69.2694 78.5497 68.9985 78.9514 68.4917C79.3836 68.1593 79.3836 68.1593 79.8716 68.0576C80.5399 68.1968 80.7532 68.4381 81.173 68.9727C81.2443 69.4594 81.2688 69.8495 81.2524 70.3331C81.2512 70.462 81.2501 70.5908 81.2489 70.7235C81.2444 71.133 81.2342 71.5422 81.2238 71.9516C81.2197 72.23 81.216 72.5084 81.2127 72.7868C81.2037 73.4676 81.1897 74.1482 81.173 74.8288C81.27 74.8483 81.3671 74.8678 81.4672 74.8879C82.1874 75.0972 82.6494 75.5921 83.0685 76.1855C83.4051 77.0999 83.3711 77.99 83.369 78.9566C83.3736 79.1508 83.3782 79.345 83.383 79.545C83.3856 80.7422 83.2984 81.578 82.4743 82.4744C81.4565 83.3672 80.4775 83.4038 79.1681 83.391C78.9682 83.3923 78.7683 83.3935 78.5623 83.3949C78.01 83.3975 77.4579 83.3966 76.9056 83.394C76.3091 83.3922 75.7125 83.3951 75.1159 83.3973C73.9485 83.4009 72.7811 83.4001 71.6137 83.3978C70.6651 83.3959 69.7166 83.3957 68.768 83.3966C68.5654 83.3967 68.5654 83.3967 68.3587 83.3969C68.0843 83.3972 67.8098 83.3975 67.5354 83.3977C64.9639 83.4001 62.3924 83.3974 59.8208 83.393C57.6137 83.3894 55.4065 83.39 53.1994 83.3938C50.6359 83.3981 48.0725 83.3998 45.509 83.3973C45.2359 83.3971 44.9627 83.3968 44.6895 83.3966C44.555 83.3964 44.4206 83.3963 44.2821 83.3962C43.3342 83.3955 42.3863 83.3967 41.4384 83.3986C40.284 83.4009 39.1296 83.4002 37.9751 83.3959C37.3859 83.3938 36.7968 83.3929 36.2077 83.3956C35.5696 83.3985 34.9318 83.3951 34.2938 83.391C34.0131 83.3937 34.0131 83.3937 33.7268 83.3965C32.4822 83.381 32.4822 83.381 31.9255 82.9114C31.6461 82.3146 31.7091 81.9636 31.8836 81.3357C32.1511 80.9746 32.2901 80.8613 32.7372 80.7862C32.9537 80.7859 32.9537 80.7859 33.1746 80.7855C33.3413 80.7841 33.508 80.7826 33.6798 80.7812C33.8635 80.7821 34.0472 80.783 34.2364 80.7839C34.4311 80.7829 34.6258 80.782 34.8265 80.781C35.3679 80.7788 35.9092 80.7787 36.4506 80.7796C37.0341 80.7801 37.6176 80.7777 38.2011 80.7757C39.2125 80.7725 40.2238 80.7711 41.2352 80.7709C42.698 80.7706 44.1608 80.7674 45.6236 80.7635C47.9975 80.7573 50.3714 80.7531 52.7453 80.7503C55.0504 80.7476 57.3555 80.7443 59.6605 80.7399C59.8025 80.7397 59.9445 80.7394 60.0907 80.7391C61.6399 80.7362 63.189 80.7331 64.7382 80.7297C64.8743 80.7294 65.0103 80.7291 65.1505 80.7287C65.6944 80.7275 66.2383 80.7263 66.7822 80.7251C68.3762 80.7215 69.9702 80.7186 71.5642 80.717C72.5638 80.716 73.5633 80.7144 74.5629 80.7124C75.1402 80.7113 75.7175 80.7105 76.2947 80.7104C76.9196 80.7103 77.5445 80.7089 78.1694 80.7074C78.3531 80.7076 78.5368 80.7078 78.7261 80.708C78.8927 80.7074 79.0594 80.7068 79.2312 80.7062C79.3755 80.706 79.5199 80.7058 79.6686 80.7057C80.0619 80.6994 80.0619 80.6994 80.5223 80.5223C80.7045 79.9755 80.7066 79.5523 80.7053 78.9769C80.7059 78.6976 80.7059 78.6976 80.7065 78.4127C80.7072 77.912 80.7072 77.912 80.5223 77.4316C80.0233 77.1821 79.5011 77.2467 78.9536 77.2484C78.8231 77.2482 78.6927 77.2479 78.5583 77.2477C78.1164 77.2471 77.6746 77.2477 77.2327 77.2482C76.9146 77.248 76.5965 77.2478 76.2785 77.2475C75.4007 77.2468 74.5229 77.2471 73.6451 77.2476C72.6999 77.248 71.7547 77.2474 70.8095 77.247C68.9564 77.2463 67.1033 77.2464 65.2502 77.2469C63.7448 77.2472 62.2393 77.2473 60.7339 77.2471C60.4131 77.2471 60.4131 77.2471 60.0859 77.247C59.7604 77.247 59.4349 77.247 59.1094 77.2469C55.039 77.2464 50.9685 77.2469 46.8981 77.2478C43.279 77.2485 39.6598 77.2485 36.0407 77.2477C31.9779 77.2468 27.9151 77.2465 23.8522 77.247C23.4194 77.247 22.9866 77.2471 22.5537 77.2471C22.3407 77.2471 22.1278 77.2472 21.9083 77.2472C20.4039 77.2473 18.8994 77.2471 17.395 77.2467C15.5627 77.2463 13.7305 77.2464 11.8983 77.2472C10.9627 77.2477 10.027 77.2478 9.09128 77.2473C8.236 77.2468 7.38072 77.2471 6.52545 77.248C6.21478 77.2481 5.90411 77.248 5.59345 77.2477C5.17365 77.2472 4.75386 77.2477 4.33407 77.2484C4.21131 77.248 4.08855 77.2477 3.96208 77.2473C3.34321 77.239 3.34321 77.239 2.76541 77.4316C2.58313 77.9784 2.58111 78.4015 2.5824 78.9769C2.58198 79.1631 2.58156 79.3493 2.58113 79.5412C2.58047 80.0419 2.58047 80.0419 2.76541 80.5223C3.29748 80.6997 3.68631 80.7057 4.24642 80.7063C4.4542 80.707 4.66198 80.7076 4.87606 80.7083C5.10679 80.7082 5.33753 80.7082 5.56827 80.7081C5.81089 80.7085 6.05351 80.7091 6.29613 80.7098C6.81885 80.7111 7.34157 80.7119 7.86429 80.7124C8.69065 80.7134 9.51699 80.7161 10.3433 80.7191C10.6262 80.7202 10.909 80.7212 11.1918 80.7222C11.4043 80.723 11.4043 80.723 11.621 80.7238C13.545 80.7306 15.469 80.736 17.3931 80.738C18.6907 80.7394 19.9883 80.743 21.286 80.7493C21.9728 80.7525 22.6596 80.7545 23.3464 80.7537C23.9923 80.7529 24.6381 80.7552 25.2839 80.7597C25.521 80.7609 25.7581 80.7609 25.9953 80.7597C26.3188 80.7583 26.6423 80.7612 26.9658 80.7643C27.1469 80.7647 27.328 80.7651 27.5146 80.7655C28.09 80.8672 28.2826 81.0355 28.6301 81.4983C28.72 82.1277 28.7513 82.4742 28.3654 82.9927C27.8597 83.3792 27.5611 83.3699 26.928 83.3714C26.8228 83.3726 26.7175 83.3737 26.6091 83.3749C26.2566 83.3778 25.9044 83.3762 25.5519 83.3745C25.2991 83.3756 25.0463 83.3771 24.7935 83.3787C24.1068 83.3824 23.4202 83.3819 22.7335 83.3805C22.1599 83.3797 21.5863 83.3808 21.0127 83.382C19.6589 83.3848 18.3051 83.3842 16.9512 83.3815C15.5559 83.3787 14.1607 83.3813 12.7654 83.3866C11.5667 83.3909 10.3679 83.3921 9.16917 83.3907C8.45358 83.3899 7.73805 83.3903 7.02247 83.3936C6.34896 83.3966 5.67556 83.3956 5.00206 83.3916C4.7555 83.3908 4.50894 83.3914 4.26239 83.3934C1.80856 83.4124 1.80856 83.4124 0.813351 82.4744C-0.139546 81.4252 -0.124043 80.3474 -0.101675 78.9769C-0.106393 78.6879 -0.106393 78.6879 -0.111206 78.393C-0.104618 77.211 0.0255174 76.3856 0.813351 75.4795C1.3507 74.9556 1.71247 74.791 2.44006 74.6661C2.43961 74.5086 2.43916 74.351 2.4387 74.1887C2.42787 70.3561 2.41985 66.5235 2.41478 62.6908C2.41226 60.8374 2.40883 58.984 2.40325 57.1305C2.39839 55.5152 2.39524 53.8999 2.39415 52.2845C2.39351 51.4291 2.39201 50.5737 2.38847 49.7183C2.38515 48.9132 2.38413 48.1081 2.38487 47.303C2.38473 47.0075 2.38376 46.712 2.38189 46.4165C2.37946 46.0129 2.38005 45.6094 2.38138 45.2058C2.37996 45.0891 2.37853 44.9723 2.37707 44.852C2.38379 44.0975 2.53279 43.5867 2.92808 42.9453C3.89175 42.0539 4.72862 42.0932 5.97816 42.0811C6.21659 42.074 6.21659 42.074 6.45982 42.0668C7.49259 42.0577 8.10699 42.1698 8.94691 42.7826C9.43308 43.3785 9.48787 43.8131 9.43493 44.572C10.0254 44.572 10.6159 44.572 11.2243 44.572C11.2377 44.4009 11.2512 44.2297 11.265 44.0535C11.3987 43.374 11.5459 43.098 12.0377 42.6199C12.5199 42.3729 12.7953 42.2946 13.339 42.2946C13.339 39.7179 13.339 37.1411 13.339 34.4864C13.0169 34.4327 12.6949 34.379 12.363 34.3237C11.8466 33.8894 11.4584 33.493 11.2243 32.8596C11.191 32.382 11.1748 31.9202 11.1754 31.4426C11.1747 31.305 11.174 31.1675 11.1733 31.0257C11.1723 30.735 11.1723 30.4443 11.173 30.1536C11.1735 29.7106 11.1697 29.2677 11.1655 28.8246C11.1652 28.5416 11.165 28.2587 11.1652 27.9757C11.1637 27.844 11.1622 27.7123 11.1607 27.5766C11.1671 26.7832 11.2376 26.2061 11.7123 25.5394C12.6232 24.8961 13.2992 24.7948 14.3983 24.8071ZM13.8271 27.4915C13.8271 28.9409 13.8271 30.3903 13.8271 31.8836C18.39 31.8836 22.9529 31.8836 27.6541 31.8836C27.6541 30.4342 27.6541 28.9848 27.6541 27.4915C23.0912 27.4915 18.5282 27.4915 13.8271 27.4915ZM34.9743 27.4915C34.9743 28.9409 34.9743 30.3903 34.9743 31.8836C39.4836 31.8836 43.9928 31.8836 48.6387 31.8836C48.6387 30.4342 48.6387 28.9848 48.6387 27.4915C44.1295 27.4915 39.6202 27.4915 34.9743 27.4915ZM56.1216 27.4915C56.1216 28.9409 56.1216 30.3903 56.1216 31.8836C60.6308 31.8836 65.1401 31.8836 69.786 31.8836C69.786 30.4342 69.786 28.9848 69.786 27.4915C65.2767 27.4915 60.7675 27.4915 56.1216 27.4915ZM15.9418 34.4864C15.9418 35.4526 15.9418 36.4189 15.9418 37.4144C16.5089 37.4264 16.5089 37.4264 17.0875 37.4386C17.4552 37.4474 17.8229 37.4567 18.1906 37.4661C18.4454 37.4723 18.7002 37.4779 18.955 37.4831C19.3222 37.4905 19.6892 37.4999 20.0562 37.5097C20.2261 37.5126 20.2261 37.5126 20.3993 37.5154C21.0362 37.5346 21.5712 37.571 22.1233 37.9024C22.4326 38.4539 22.494 38.9529 22.516 39.5781C22.5254 39.8164 22.5254 39.8164 22.535 40.0594C22.5401 40.2233 22.5451 40.3872 22.5503 40.556C22.5597 40.8066 22.5597 40.8066 22.5694 41.0621C22.5846 41.4729 22.5981 41.8837 22.6113 42.2946C23.5776 42.2946 24.5438 42.2946 25.5394 42.2946C25.5394 39.7179 25.5394 37.1411 25.5394 34.4864C22.3722 34.4864 19.205 34.4864 15.9418 34.4864ZM36.9264 34.4864C36.9264 35.4526 36.9264 36.4189 36.9264 37.4144C37.4935 37.4236 37.4935 37.4236 38.0721 37.4329C38.4398 37.4404 38.8075 37.4487 39.1752 37.4571C39.43 37.4625 39.6848 37.4671 39.9396 37.4708C40.3068 37.4763 40.6737 37.4848 41.0408 37.4939C41.2106 37.4954 41.2106 37.4954 41.3839 37.497C42.0922 37.5182 42.5397 37.6398 43.1079 38.0651C43.7604 38.8069 43.6857 39.6988 43.7077 40.6374C43.7133 40.7966 43.7188 40.9559 43.7246 41.12C43.7379 41.5114 43.7485 41.903 43.7586 42.2946C44.7248 42.2946 45.6911 42.2946 46.6866 42.2946C46.6866 39.7179 46.6866 37.1411 46.6866 34.4864C43.4658 34.4864 40.2449 34.4864 36.9264 34.4864ZM58.0736 34.4864C58.0736 35.4526 58.0736 36.4189 58.0736 37.4144C58.6407 37.4236 58.6407 37.4236 59.2193 37.4329C59.5871 37.4404 59.9548 37.4487 60.3225 37.4571C60.5773 37.4625 60.8321 37.4671 61.0869 37.4708C61.454 37.4763 61.821 37.4848 62.1881 37.4939C62.3579 37.4954 62.3579 37.4954 62.5312 37.497C63.2394 37.5182 63.687 37.6398 64.2551 38.0651C64.9076 38.8069 64.8329 39.6988 64.855 40.6374C64.8605 40.7966 64.8661 40.9559 64.8718 41.12C64.8852 41.5114 64.8958 41.903 64.9058 42.2946C65.8721 42.2946 66.8384 42.2946 67.8339 42.2946C67.8339 39.7179 67.8339 37.1411 67.8339 34.4864C64.613 34.4864 61.3921 34.4864 58.0736 34.4864ZM15.9418 40.0172C15.9418 40.7687 15.9418 41.5203 15.9418 42.2946C17.2838 42.2946 18.6259 42.2946 20.0086 42.2946C20.0086 41.543 20.0086 40.7915 20.0086 40.0172C18.6665 40.0172 17.3245 40.0172 15.9418 40.0172ZM36.9264 40.0172C36.9264 40.7687 36.9264 41.5203 36.9264 42.2946C38.3221 42.2946 39.7178 42.2946 41.1558 42.2946C41.1558 41.543 41.1558 40.7915 41.1558 40.0172C39.7601 40.0172 38.3644 40.0172 36.9264 40.0172ZM58.0736 40.0172C58.0736 40.7687 58.0736 41.5203 58.0736 42.2946C59.4694 42.2946 60.8651 42.2946 62.3031 42.2946C62.3031 41.543 62.3031 40.7915 62.3031 40.0172C60.9074 40.0172 59.5116 40.0172 58.0736 40.0172ZM5.0428 44.7346C5.0428 54.5584 5.0428 64.3821 5.0428 74.5035C5.6333 74.5035 6.2238 74.5035 6.83219 74.5035C6.83219 64.6798 6.83219 54.856 6.83219 44.7346C6.24169 44.7346 5.65119 44.7346 5.0428 44.7346ZM13.8271 44.8973C13.8271 45.5415 13.8271 46.1857 13.8271 46.8494C18.39 46.8494 22.9529 46.8494 27.6541 46.8494C27.6541 46.2052 27.6541 45.561 27.6541 44.8973C23.0912 44.8973 18.5282 44.8973 13.8271 44.8973ZM34.9743 44.8973C34.9743 45.5415 34.9743 46.1857 34.9743 46.8494C39.4836 46.8494 43.9928 46.8494 48.6387 46.8494C48.6387 46.2052 48.6387 45.561 48.6387 44.8973C44.1295 44.8973 39.6202 44.8973 34.9743 44.8973ZM56.1216 44.8973C56.1216 45.5415 56.1216 46.1857 56.1216 46.8494C60.6308 46.8494 65.1401 46.8494 69.786 46.8494C69.786 46.2052 69.786 45.561 69.786 44.8973C65.2767 44.8973 60.7675 44.8973 56.1216 44.8973ZM9.43493 47.1747C9.43493 56.1932 9.43493 65.2117 9.43493 74.5035C30.8002 74.5035 52.1654 74.5035 74.1781 74.5035C74.1781 65.485 74.1781 56.4665 74.1781 47.1747C73.5876 47.1747 72.9971 47.1747 72.3887 47.1747C72.3216 47.4062 72.2545 47.6377 72.1854 47.8762C71.9814 48.4843 71.8454 48.8291 71.25 49.1268C70.9794 49.2364 70.7083 49.345 70.4366 49.4521C70.4357 49.6447 70.4347 49.8374 70.4338 50.0358C70.4244 51.8593 70.4126 53.6827 70.3983 55.5061C70.3911 56.4434 70.3847 57.3806 70.3803 58.3178C70.376 59.2239 70.3694 60.1299 70.3613 61.0359C70.3586 61.38 70.3567 61.7241 70.3557 62.0682C70.3464 64.9083 70.3124 67.604 68.3048 69.8426C66.5163 71.5361 64.5415 72.0141 62.1519 71.9617C60.2505 71.8628 58.7261 70.9759 57.4344 69.6189C56.021 67.9417 55.6138 66.1016 55.6002 63.9674C55.5986 63.8102 55.5969 63.653 55.5953 63.491C55.5902 62.9735 55.5861 62.4559 55.5821 61.9384C55.5787 61.5787 55.5753 61.2191 55.5718 60.8594C55.5629 59.9143 55.5548 58.9692 55.547 58.0241C55.5388 57.0591 55.5298 56.0941 55.5208 55.1291C55.5033 53.2368 55.4868 51.3444 55.4709 49.4521C55.3806 49.4087 55.2903 49.3652 55.1973 49.3205C55.0794 49.2628 54.9614 49.2052 54.8399 49.1458C54.6642 49.0605 54.6642 49.0605 54.485 48.9735C54.0822 48.7538 53.8871 48.562 53.6815 48.1507C53.6278 47.8286 53.5741 47.5066 53.5188 47.1747C52.7673 47.1747 52.0158 47.1747 51.2414 47.1747C51.1861 47.4767 51.1861 47.4767 51.1296 47.7847C50.9577 48.47 50.719 48.7542 50.1027 49.1268C49.8328 49.2382 49.5619 49.3471 49.2894 49.4521C49.2884 49.6495 49.2875 49.847 49.2865 50.0504C49.2772 51.917 49.2653 53.7836 49.251 55.6502C49.2438 56.6097 49.2374 57.5692 49.233 58.5287C49.2288 59.4559 49.2222 60.383 49.214 61.3101C49.2113 61.6626 49.2095 62.0152 49.2084 62.3677C49.1989 65.3621 49.0111 67.8119 46.8874 70.0993C45.4716 71.4137 43.7537 71.9967 41.8472 71.9821C41.7054 71.9811 41.5635 71.9802 41.4174 71.9793C39.5333 71.9276 37.9553 71.2685 36.601 69.9487C34.3612 67.5173 34.4361 64.7313 34.4189 61.6048C34.4159 61.2536 34.4127 60.9024 34.4094 60.5511C34.4011 59.632 34.3946 58.7129 34.3886 57.7938C34.382 56.8537 34.3737 55.9137 34.3656 54.9737C34.3499 53.1332 34.3361 51.2927 34.3236 49.4521C34.1882 49.3885 34.1882 49.3885 34.05 49.3237C33.9321 49.2669 33.8142 49.2101 33.6926 49.1515C33.5755 49.0958 33.4584 49.04 33.3377 48.9825C32.8939 48.7278 32.7283 48.4561 32.5342 47.9881C32.4806 47.7197 32.4269 47.4512 32.3716 47.1747C31.6737 47.1747 30.9759 47.1747 30.2568 47.1747C30.1159 47.522 30.1159 47.522 29.9722 47.8762C29.5451 48.8323 29.0957 49.0767 28.1421 49.4521C28.1407 49.7518 28.1407 49.7518 28.1392 50.0576C28.1299 51.9459 28.1181 53.8341 28.1038 55.7223C28.0965 56.6929 28.0901 57.6635 28.0858 58.6342C28.0815 59.5719 28.0749 60.5095 28.0668 61.4472C28.0641 61.8039 28.0622 62.1607 28.0612 62.5174C28.0596 63.0193 28.055 63.521 28.0498 64.0228C28.0501 64.2413 28.0501 64.2413 28.0505 64.4643C28.0182 66.668 27.2788 68.4601 25.7821 70.0573C24.3775 71.3717 22.6779 71.997 20.7711 71.9719C20.6362 71.9704 20.5014 71.969 20.3625 71.9675C18.4157 71.9129 16.8969 71.2677 15.4538 69.9487C13.8377 68.1805 13.3997 66.2815 13.4153 63.9343C13.4147 63.7252 13.414 63.5161 13.4134 63.3006C13.4125 62.8625 13.4138 62.4244 13.4169 61.9862C13.4206 61.425 13.4184 60.8639 13.4146 60.3027C13.4116 59.7645 13.4137 59.2264 13.4153 58.6881C13.414 58.4869 13.4127 58.2856 13.4113 58.0782C13.4134 57.8924 13.4154 57.7065 13.4175 57.5151C13.4183 57.2698 13.4183 57.2698 13.4191 57.0196C13.5017 56.6096 13.5017 56.6096 13.8083 56.3098C14.2338 56.0771 14.4511 56.0958 14.9251 56.1725C15.0551 56.192 15.1851 56.2115 15.3191 56.2316C15.4172 56.249 15.5153 56.2664 15.6164 56.2843C15.7855 57.0044 15.8305 57.7142 15.8706 58.4499C15.8941 58.8625 15.9176 59.2752 15.9418 59.7004C17.2838 59.7004 18.6259 59.7004 20.0086 59.7004C20.0086 56.3185 20.0086 52.9365 20.0086 49.4521C18.6665 49.4521 17.3245 49.4521 15.9418 49.4521C15.9183 49.8111 15.8948 50.1701 15.8706 50.54C15.826 51.2219 15.7682 51.876 15.6164 52.5429C15.3866 52.5836 15.1559 52.6201 14.9251 52.6547C14.7968 52.6755 14.6684 52.6962 14.5362 52.7176C14.1524 52.7055 14.1524 52.7055 13.7864 52.553C13.3388 52.0255 13.3918 51.4759 13.3797 50.8043C13.3749 50.6746 13.3701 50.5449 13.3651 50.4113C13.3536 50.0917 13.346 49.7719 13.339 49.4521C13.239 49.4146 13.139 49.377 13.0359 49.3384C11.959 48.9038 11.959 48.9038 11.5497 48.4049C11.387 47.9881 11.387 47.9881 11.2243 47.1747C10.6338 47.1747 10.0433 47.1747 9.43493 47.1747ZM22.6113 49.4521C22.6113 51.8678 22.6113 54.2834 22.6113 56.7723C23.5776 56.7723 24.5438 56.7723 25.5394 56.7723C25.5394 54.3566 25.5394 51.941 25.5394 49.4521C24.5731 49.4521 23.6068 49.4521 22.6113 49.4521ZM36.9264 49.4521C36.9264 52.834 36.9264 56.216 36.9264 59.7004C38.3221 59.7004 39.7178 59.7004 41.1558 59.7004C41.1558 56.3185 41.1558 52.9365 41.1558 49.4521C39.7601 49.4521 38.3644 49.4521 36.9264 49.4521ZM43.7586 49.4521C43.7586 51.8678 43.7586 54.2834 43.7586 56.7723C44.7248 56.7723 45.6911 56.7723 46.6866 56.7723C46.6866 54.3566 46.6866 51.941 46.6866 49.4521C45.7204 49.4521 44.7541 49.4521 43.7586 49.4521ZM58.0736 49.4521C58.0736 52.834 58.0736 56.216 58.0736 59.7004C59.4694 59.7004 60.8651 59.7004 62.3031 59.7004C62.3031 56.3185 62.3031 52.9365 62.3031 49.4521C60.9074 49.4521 59.5116 49.4521 58.0736 49.4521ZM64.9058 49.4521C64.9058 51.8678 64.9058 54.2834 64.9058 56.7723C65.8721 56.7723 66.8384 56.7723 67.8339 56.7723C67.8339 54.3566 67.8339 51.941 67.8339 49.4521C66.8676 49.4521 65.9014 49.4521 64.9058 49.4521ZM22.6113 59.375C22.5945 59.6267 22.5777 59.8783 22.5605 60.1376C22.4919 60.8104 22.4085 61.2843 21.9606 61.8151C21.3716 62.2123 20.7588 62.1965 20.0721 62.2078C19.8948 62.2125 19.8948 62.2125 19.7138 62.2174C19.3376 62.2271 18.9614 62.2346 18.5852 62.2421C18.3295 62.2483 18.0739 62.2547 17.8182 62.2612C17.1928 62.2768 16.5673 62.2905 15.9418 62.3031C15.7466 65.4455 15.7466 65.4455 17.1847 68.144C17.4609 68.4074 17.733 68.6082 18.0565 68.81C18.1614 68.8767 18.2662 68.9433 18.3742 69.0121C19.5534 69.6453 20.9388 69.6774 22.2237 69.3533C23.5891 68.8076 24.5456 67.8496 25.2287 66.5669C25.5735 65.7292 25.5612 64.8913 25.5553 63.9978C25.5549 63.7992 25.5549 63.7992 25.5546 63.5965C25.5537 63.1755 25.5516 62.7546 25.5495 62.3336C25.5487 62.0474 25.548 61.7611 25.5473 61.4748C25.5457 60.7749 25.5425 60.075 25.5394 59.375C24.5731 59.375 23.6068 59.375 22.6113 59.375ZM43.7586 59.375C43.7082 59.6871 43.6579 59.9991 43.6061 60.3206C43.5221 60.8409 43.4373 61.3148 43.2705 61.8151C42.6011 62.1913 41.9174 62.1958 41.1679 62.2078C41.0463 62.211 40.9247 62.2141 40.7994 62.2174C40.4132 62.227 40.0271 62.2346 39.6409 62.2421C39.3782 62.2483 39.1154 62.2547 38.8527 62.2612C38.2106 62.2768 37.5685 62.2905 36.9264 62.3031C36.9175 62.737 36.9111 63.1706 36.906 63.6045C36.9033 63.7255 36.9006 63.8465 36.8978 63.9711C36.8852 65.4182 37.1921 66.8805 38.1826 67.9833C39.4665 69.1804 40.6407 69.5809 42.3975 69.5223C43.7465 69.3705 44.8246 68.6905 45.7106 67.6713C46.5004 66.417 46.7125 65.3407 46.7025 63.8708C46.7023 63.7419 46.7021 63.6131 46.7018 63.4803C46.7009 63.071 46.6989 62.6616 46.6968 62.2523C46.696 61.9739 46.6953 61.6954 46.6946 61.417C46.6929 60.7364 46.6898 60.0557 46.6866 59.375C45.7204 59.375 44.7541 59.375 43.7586 59.375ZM64.9058 59.375C64.8723 59.6804 64.8387 59.9857 64.8042 60.3002C64.7289 60.985 64.6486 61.2567 64.1636 61.7582C63.5834 62.2176 63.0209 62.2595 62.2993 62.2555C62.1779 62.2579 62.0565 62.2604 61.9314 62.2629C61.5469 62.2699 61.1626 62.2713 60.778 62.2726C60.516 62.2764 60.254 62.2805 59.992 62.285C59.3525 62.2952 58.7132 62.3005 58.0736 62.3031C57.954 65.2698 57.954 65.2698 59.2549 67.8632C60.3006 68.9582 61.3611 69.4997 62.8928 69.542C64.4019 69.5165 65.6258 68.9746 66.6952 67.9051C67.981 66.1826 67.919 64.132 67.8746 62.0896C67.8713 61.825 67.8683 61.5603 67.8657 61.2957C67.8592 60.6553 67.8464 60.0155 67.8339 59.375C66.8676 59.375 65.9014 59.375 64.9058 59.375Z" fill="#EDF7FF"/>
<path d="M54.4492 -0.0725457C54.8085 -0.0711617 55.1673 -0.0758432 55.5265 -0.0810049C55.7568 -0.0812672 55.9872 -0.081173 56.2175 -0.0806872C56.4253 -0.0809886 56.6331 -0.08129 56.8472 -0.0816006C57.5212 0.013944 57.8732 0.225965 58.399 0.650698C58.601 1.02306 58.601 1.02306 58.704 1.40305C58.7587 1.59241 58.7587 1.59241 58.8145 1.78558C58.887 2.11474 58.887 2.11474 58.887 2.44008C59.0447 2.43791 59.0447 2.43791 59.2055 2.4357C60.3033 2.42127 61.4011 2.41148 62.499 2.40434C62.9083 2.40107 63.3176 2.39664 63.7268 2.39099C64.3164 2.38307 64.9059 2.3794 65.4955 2.37654C65.6774 2.37318 65.8592 2.36982 66.0466 2.36636C67.3193 2.366 68.1657 2.55831 69.1689 3.38751C70.0617 4.42366 70.4956 5.35611 70.4468 6.7407C70.2999 7.85486 69.8394 8.82785 68.9612 9.54869C68.2 10.0388 67.5737 10.2689 66.6617 10.2668C66.4029 10.2668 66.4029 10.2668 66.1388 10.2667C65.9527 10.2659 65.7666 10.2651 65.5749 10.2642C65.3843 10.264 65.1936 10.2637 64.9971 10.2635C64.3872 10.2626 63.7772 10.2605 63.1673 10.2585C62.7541 10.2577 62.341 10.2569 61.9279 10.2562C60.9142 10.2544 59.9006 10.2517 58.887 10.2483C58.8675 10.4517 58.848 10.6551 58.8279 10.8647C58.7521 11.6548 58.49 11.9852 57.911 12.5257C56.8893 12.9437 55.918 12.9049 54.8304 12.9019C54.5487 12.9058 54.5487 12.9058 54.2613 12.9098C53.2394 12.9104 52.461 12.8762 51.5668 12.363C51.0788 11.8435 51.0788 11.8435 51.0788 11.387C50.9007 11.3896 50.7226 11.3921 50.5392 11.3947C49.8768 11.4036 49.2144 11.4092 48.5519 11.4138C48.2655 11.4163 47.9792 11.4196 47.6928 11.4238C47.2805 11.4298 46.8683 11.4325 46.456 11.4347C46.3285 11.4372 46.2011 11.4397 46.0697 11.4423C45.3235 11.4425 44.8374 11.3675 44.2466 10.899C44.0116 10.4291 44.0226 10.1187 44.0839 9.59762C44.4046 9.16688 44.6619 8.83861 45.2034 8.71358C45.5694 8.69018 45.9268 8.69276 46.2933 8.70483C46.4257 8.70598 46.5582 8.70713 46.6946 8.70832C47.1158 8.71285 47.5365 8.72306 47.9575 8.73343C48.2438 8.73751 48.53 8.74122 48.8163 8.74454C49.5165 8.7528 50.2159 8.76871 50.9161 8.78426C50.9161 7.17381 50.9161 5.56337 50.9161 3.90412C48.2802 3.91069 45.6443 3.91995 43.0084 3.93404C41.7843 3.94049 40.5602 3.94577 39.3361 3.94821C38.2683 3.95033 37.2005 3.95474 36.1327 3.96181C35.5681 3.96547 35.0036 3.96804 34.439 3.96787C33.8063 3.96773 33.1738 3.97268 32.5411 3.97799C32.3571 3.97717 32.173 3.97636 31.9834 3.97551C30.8352 3.99033 29.864 4.18619 28.7772 4.55841C28.1395 4.77312 27.4995 4.90883 26.8407 5.04282C26.8407 5.90173 26.8407 6.76063 26.8407 7.64556C27.3239 7.72608 27.3239 7.72608 27.8168 7.80823C28.0944 7.90843 28.3693 8.01674 28.6403 8.13357C29.5288 8.51536 30.2973 8.64167 31.2647 8.64208C31.4644 8.6427 31.6642 8.64332 31.87 8.64396C32.1916 8.64421 32.1916 8.64421 32.5196 8.64446C32.8575 8.64641 33.1954 8.6489 33.5333 8.65141C34.3652 8.65758 35.1971 8.66268 36.029 8.66234C36.6091 8.66221 37.189 8.666 37.769 8.6724C38.0966 8.67493 38.4243 8.67323 38.7519 8.67148C38.9511 8.67415 39.1504 8.67682 39.3557 8.67957C39.6186 8.68046 39.6186 8.68046 39.8868 8.68137C40.3425 8.78426 40.3425 8.78426 40.725 9.16634C41.0515 9.69149 41.0837 9.96537 40.9931 10.5736C40.7036 11.0838 40.5827 11.1985 40.0171 11.387C39.7091 11.4046 39.4006 11.4128 39.0921 11.4158C38.9019 11.4179 38.7117 11.42 38.5157 11.4221C38.3093 11.4233 38.1029 11.4245 37.8903 11.4258C37.5702 11.4277 37.5702 11.4277 37.2437 11.4297C36.7904 11.4322 36.3371 11.4338 35.8837 11.435C35.4235 11.4364 34.9634 11.4398 34.5033 11.445C29.2431 11.5033 29.2431 11.5033 26.907 10.4804C26.0496 10.1214 25.3228 10.0646 24.3969 10.0513C24.1749 10.0468 23.9529 10.0421 23.7309 10.0373C23.3847 10.0306 23.0386 10.0246 22.6923 10.0203C22.3556 10.0158 22.019 10.0084 21.6823 10.0005C21.4822 9.99726 21.282 9.99403 21.0758 9.99071C20.0317 9.86858 19.0807 9.42918 18.3818 8.62159C17.7629 7.65394 17.5365 6.66551 17.7312 5.53084C18.0865 4.3742 18.6399 3.72038 19.6692 3.1003C20.3365 2.76165 20.8742 2.74347 21.6143 2.73683C21.841 2.73305 22.0678 2.72913 22.2945 2.72507C22.6489 2.71942 23.0032 2.71462 23.3576 2.7124C24.894 2.70095 26.2137 2.53571 27.6541 1.95207C27.9113 1.85959 28.1688 1.76789 28.4268 1.67756C28.53 1.64003 28.6331 1.60249 28.7394 1.56382C29.96 1.24228 31.2115 1.27903 32.4637 1.28292C32.7662 1.28288 32.7662 1.28288 33.0749 1.28284C33.6243 1.28294 34.1737 1.28375 34.7232 1.28489C35.2987 1.28591 35.8742 1.286 36.4498 1.28619C37.538 1.2867 38.6263 1.28803 39.7145 1.28967C40.9541 1.29149 42.1937 1.29238 43.4333 1.2932C45.9818 1.29489 48.5303 1.29775 51.0788 1.30138C51.1252 1.17317 51.1716 1.04496 51.2194 0.912857C51.7712 -0.356229 53.2832 -0.0794097 54.4492 -0.0725457ZM53.5188 2.44008C53.5188 5.01679 53.5188 7.59351 53.5188 10.2483C54.4314 10.2483 55.344 10.2483 56.2842 10.2483C56.2842 7.67159 56.2842 5.09488 56.2842 2.44008C55.3717 2.44008 54.4591 2.44008 53.5188 2.44008ZM58.887 5.04282C58.887 5.95541 58.887 6.86799 58.887 7.80823C59.9378 7.81628 60.9885 7.82218 62.0393 7.8261C62.3967 7.82774 62.7541 7.82996 63.1115 7.83278C63.6255 7.83673 64.1395 7.83857 64.6535 7.84C64.813 7.84168 64.9725 7.84336 65.1368 7.84509C66.03 7.84524 66.7289 7.82366 67.4679 7.26938C67.744 6.89659 67.8118 6.64555 67.8339 6.18152C67.6085 5.72 67.3833 5.40558 67.0205 5.04282C66.6588 4.99529 66.6588 4.99529 66.237 5.00589C66.0742 5.00591 65.9113 5.00594 65.7436 5.00596C65.5674 5.00764 65.3911 5.00932 65.2096 5.01105C64.9394 5.01174 64.9394 5.01174 64.6639 5.01244C64.087 5.01427 63.5103 5.01835 62.9334 5.02249C62.5431 5.02412 62.1527 5.0256 61.7623 5.02694C60.8039 5.03053 59.8454 5.03615 58.887 5.04282ZM20.5544 5.66428C20.2878 6.02123 20.2878 6.02123 20.3441 6.5272C20.4587 7.04234 20.4587 7.04234 20.9846 7.32022C21.3465 7.36492 21.3465 7.36492 21.7439 7.35199C21.8891 7.35094 22.0344 7.34989 22.184 7.34881C22.3351 7.34609 22.4861 7.34336 22.6418 7.34055C22.7948 7.33908 22.9477 7.33762 23.1053 7.3361C23.4829 7.33227 23.8605 7.32644 24.238 7.32022C24.238 6.67604 24.238 6.03186 24.238 5.36816C23.7092 5.3506 23.1809 5.3377 22.652 5.3275C22.5022 5.32204 22.3525 5.31659 22.1983 5.31097C21.3222 5.28786 21.3222 5.28786 20.5544 5.66428Z" fill="#EDF7FF"/>
<path d="M21.1473 11.5497C22.9891 12.4811 24.4753 14.1326 25.2192 16.0486C25.6959 17.5848 25.781 19.1224 25.1054 20.6072C24.3412 21.9384 23.2815 22.8402 21.798 23.262C20.0215 23.4411 18.7563 23.2047 17.3652 22.0928C16.3939 21.1914 15.863 20.1397 15.7461 18.8229C15.7067 16.8586 16.3444 15.0452 17.6225 13.5443C19.8312 11.2543 19.8312 11.2543 21.1473 11.5497ZM19.9578 14.9455C18.9904 15.9492 18.4348 17.1038 18.3603 18.5026C18.4063 19.2841 18.7206 19.7112 19.2867 20.2221C19.9534 20.6836 20.5077 20.7684 21.31 20.6593C22.1399 20.2208 22.6396 19.7611 22.9367 18.8699C23.0636 17.626 22.6797 16.617 21.9282 15.6387C21.572 15.2331 21.2219 14.8406 20.822 14.4778C20.3764 14.4778 20.2757 14.6395 19.9578 14.9455Z" fill="#EDF7FF"/>
</g>
<defs>
<clipPath id="clip0_87_295">
<rect width="83.2877" height="83.2877" fill="white"/>
</clipPath>
</defs>
</svg>
