<svg width="20" height="29" viewBox="0 0 20 29" fill="none" xmlns="http://www.w3.org/2000/svg">
<path fill-rule="evenodd" clip-rule="evenodd" d="M0.754489 0.171574C1.219 -0.0807535 1.78263 -0.0530983 2.221 0.243529L5.71429 2.60732L9.20757 0.243529C9.68743 -0.0811733 10.3126 -0.0811733 10.7924 0.243529L14.2857 2.60732L17.779 0.243529C18.2174 -0.0530983 18.781 -0.0807535 19.2455 0.171574C19.71 0.423902 20 0.915249 20 1.45V27.55C20 28.0525 19.7436 28.5192 19.3225 28.7834C18.9013 29.0476 18.3754 29.0717 17.9326 28.8469L14.2857 26.9961L10.6389 28.8469C10.2367 29.051 9.76331 29.051 9.36112 28.8469L5.71429 26.9961L2.06745 28.8469C1.62461 29.0717 1.09869 29.0476 0.677527 28.7834C0.256361 28.5192 0 28.0525 0 27.55V1.45C0 0.915249 0.289978 0.423902 0.754489 0.171574ZM2.85714 4.15935V25.2038L5.07541 24.0781C5.47759 23.874 5.95098 23.874 6.35316 24.0781L10 25.9289L13.6468 24.0781C14.049 23.874 14.5224 23.874 14.9246 24.0781L17.1429 25.2038V4.15935L15.0781 5.55647C14.5983 5.88118 13.9731 5.88118 13.4933 5.55647L10 3.19268L6.50671 5.55647C6.02686 5.88118 5.40171 5.88118 4.92186 5.55647L2.85714 4.15935Z" fill="#3F8ECC"/>
<path fill-rule="evenodd" clip-rule="evenodd" d="M6 10.5C6 9.67157 6.59695 9 7.33333 9H12.6667C13.403 9 14 9.67157 14 10.5C14 11.3284 13.403 12 12.6667 12H7.33333C6.59695 12 6 11.3284 6 10.5Z" fill="#3F8ECC"/>
<path fill-rule="evenodd" clip-rule="evenodd" d="M6 19C6 18.4477 6.59695 18 7.33333 18H12.6667C13.403 18 14 18.4477 14 19C14 19.5523 13.403 20 12.6667 20H7.33333C6.59695 20 6 19.5523 6 19Z" fill="#3F8ECC"/>
<path fill-rule="evenodd" clip-rule="evenodd" d="M6 14.5C6 13.6716 6.59695 13 7.33333 13H12.6667C13.403 13 14 13.6716 14 14.5C14 15.3284 13.403 16 12.6667 16H7.33333C6.59695 16 6 15.3284 6 14.5Z" fill="#3F8ECC"/>
</svg>
