<svg width="31" height="29" viewBox="0 0 31 29" fill="none" xmlns="http://www.w3.org/2000/svg">
<path fill-rule="evenodd" clip-rule="evenodd" d="M7.09896 1.47447e-06H21.901C22.8003 -2.91793e-05 23.5761 -5.57452e-05 24.215 0.0524078C24.8895 0.107781 25.5602 0.230037 26.2057 0.560541C27.1687 1.0536 27.9516 1.84036 28.4422 2.80805C28.7711 3.4567 28.8928 4.13079 28.9479 4.80853C29.0001 5.45064 29 6.23022 29 7.13389V12C29 12.9468 28.2363 13.7143 27.2941 13.7143C26.352 13.7143 25.5882 12.9468 25.5882 12V7.2C25.5882 6.21163 25.5869 5.57344 25.5474 5.08772C25.5096 4.62201 25.4453 4.44935 25.4023 4.36459C25.2388 4.04203 24.9778 3.77977 24.6568 3.61542C24.5725 3.57223 24.4006 3.50764 23.9372 3.46959C23.4539 3.42991 22.8188 3.42857 21.8353 3.42857H7.16471C6.18118 3.42857 5.54612 3.42991 5.06278 3.46959C4.59936 3.50764 4.42754 3.57223 4.3432 3.61542C4.02221 3.77977 3.76125 4.04203 3.5977 4.36459C3.55472 4.44935 3.49045 4.62201 3.45258 5.08772C3.41309 5.57344 3.41177 6.21162 3.41177 7.2V16.8C3.41177 17.7884 3.41309 18.4266 3.45258 18.9123C3.49045 19.378 3.55472 19.5507 3.5977 19.6354C3.76125 19.958 4.02221 20.2202 4.3432 20.3846C4.42754 20.4278 4.59936 20.4924 5.06278 20.5304C5.54612 20.5701 6.18118 20.5714 7.16471 20.5714H18.7647C19.7068 20.5714 20.4706 21.3389 20.4706 22.2857C20.4706 23.2325 19.7068 24 18.7647 24H7.09899C6.19972 24 5.42394 24.0001 4.78496 23.9476C4.11054 23.8922 3.43976 23.77 2.79429 23.4395C1.83134 22.9464 1.04844 22.1596 0.557793 21.192C0.228909 20.5433 0.107253 19.8692 0.0521509 19.1915C-5.5472e-05 18.5494 -2.90363e-05 17.7698 1.46725e-06 16.8661V7.13393C-2.90363e-05 6.23024 -5.5472e-05 5.45065 0.0521509 4.80853C0.107253 4.13079 0.228909 3.4567 0.557793 2.80805C1.04844 1.84036 1.83134 1.0536 2.79429 0.560541C3.43976 0.230037 4.11054 0.107781 4.78496 0.0524078C5.42393 -5.57452e-05 6.1997 -2.91793e-05 7.09896 1.47447e-06Z" fill="#3F8ECC"/>
<path fill-rule="evenodd" clip-rule="evenodd" d="M7 15.5C7 14.6716 7.74619 14 8.66667 14H15.3333C16.2538 14 17 14.6716 17 15.5C17 16.3284 16.2538 17 15.3333 17H8.66667C7.74619 17 7 16.3284 7 15.5Z" fill="#3F8ECC"/>
<path fill-rule="evenodd" clip-rule="evenodd" d="M7 8.5C7 7.67157 7.74619 7 8.66667 7H20.3333C21.2538 7 22 7.67157 22 8.5C22 9.32843 21.2538 10 20.3333 10H8.66667C7.74619 10 7 9.32843 7 8.5Z" fill="#3F8ECC"/>
<path fill-rule="evenodd" clip-rule="evenodd" d="M25.5 22C27.433 22 29 20.433 29 18.5C29 16.567 27.433 15 25.5 15C23.567 15 22 16.567 22 18.5C22 20.433 23.567 22 25.5 22Z" fill="#3F8ECC"/>
<path fill-rule="evenodd" clip-rule="evenodd" d="M22.3549 25.1985C23.1499 24.5625 24.3453 24 26 24C27.6547 24 28.8501 24.5625 29.6451 25.1985C30.032 25.508 30.3096 25.8228 30.4971 26.0728C30.5911 26.1981 30.6636 26.3087 30.7169 26.3966C30.7437 26.4406 30.7657 26.4791 30.7834 26.5112C30.7922 26.5273 30.8 26.5418 30.8067 26.5546L30.8159 26.5725L30.82 26.5805L30.8219 26.5842L30.8228 26.586C30.8233 26.5869 30.8237 26.5878 29.3331 27.3331L30.8237 26.5878C31.2353 27.411 30.9016 28.4121 30.0784 28.8237C29.2697 29.228 28.2894 28.9132 27.8648 28.1215C27.8597 28.1134 27.8484 28.0963 27.8306 28.0726C27.7837 28.0101 27.6968 27.9083 27.5629 27.8012C27.3163 27.6039 26.8451 27.3331 26 27.3331C25.1549 27.3331 24.6837 27.6039 24.4371 27.8012C24.3032 27.9083 24.2163 28.0101 24.1694 28.0726C24.1516 28.0963 24.1403 28.1134 24.1352 28.1215C23.7106 28.9132 22.7303 29.228 21.9216 28.8237C21.0984 28.4121 20.7647 27.411 21.1763 26.5878L22.6668 27.333C21.1763 26.5878 21.1767 26.5869 21.1772 26.586L21.1781 26.5842L21.18 26.5805L21.1841 26.5725L21.1933 26.5546C21.2 26.5418 21.2078 26.5273 21.2166 26.5112C21.2343 26.4791 21.2563 26.4406 21.2831 26.3966C21.3364 26.3087 21.4089 26.1981 21.5029 26.0728C21.6904 25.8228 21.968 25.508 22.3549 25.1985Z" fill="#3F8ECC"/>
</svg>
